Alfphabet-IV.ufo
<glyph name="exclam" format="1">
  <advance width="273"/>
  <unicode hex="0021"/>
  <outline>
    <contour>
      <point x="70" y="712" type="line"/>
      <point x="211" y="712" type="line"/>
      <point x="211" y="208" type="line"/>
      <point x="80" y="208" type="line"/>
    </contour>
    <contour>
      <point x="81" y="0" type="line"/>
      <point x="81" y="119" type="line"/>
      <point x="200" y="119" type="line"/>
      <point x="200" y="0" type="line"/>
    </contour>
  </outline>
</glyph>
<glyph name="quotedbl" format="1">
  <advance width="440"/>
  <unicode hex="0022"/>
  <outline>
    <contour>
      <point x="368" y="712" type="line"/>
      <point x="368" y="534" type="line"/>
      <point x="249" y="534" type="line"/>
      <point x="249" y="711" type="line"/>
    </contour>
    <contour>
      <point x="190" y="711" type="line"/>
      <point x="190" y="534" type="line"/>
      <point x="71" y="534" type="line"/>
      <point x="71" y="711" type="line"/>
    </contour>
  </outline>
</glyph>
<glyph name="numbersign" format="1">
  <advance width="656"/>
  <unicode hex="0023"/>
  <outline>
    <contour>
      <point x="387" y="428" type="line"/>
      <point x="289" y="428" type="line"/>
      <point x="268" y="284" type="line"/>
      <point x="366" y="284" type="line"/>
    </contour>
    <contour>
      <point x="358" y="198" type="line"/>
      <point x="260" y="198" type="line"/>
      <point x="230" y="0" type="line"/>
      <point x="132" y="0" type="line"/>
      <point x="162" y="198" type="line"/>
      <point x="71" y="198" type="line"/>
      <point x="71" y="284" type="line"/>
      <point x="170" y="284" type="line"/>
      <point x="191" y="428" type="line"/>
      <point x="100" y="428" type="line"/>
      <point x="100" y="514" type="line"/>
      <point x="199" y="514" type="line"/>
      <point x="230" y="712" type="line"/>
      <point x="328" y="712" type="line"/>
      <point x="297" y="514" type="line"/>
      <point x="395" y="514" type="line"/>
      <point x="426" y="712" type="line"/>
      <point x="524" y="712" type="line"/>
      <point x="493" y="514" type="line"/>
      <point x="585" y="514" type="line"/>
      <point x="585" y="428" type="line"/>
      <point x="485" y="428" type="line"/>
      <point x="464" y="284" type="line"/>
      <point x="556" y="284" type="line"/>
      <point x="556" y="198" type="line"/>
      <point x="456" y="198" type="line"/>
      <point x="426" y="0" type="line"/>
      <point x="328" y="0" type="line"/>
    </contour>
  </outline>
</glyph>
<glyph name="dollar" format="1">
  <advance width="855"/>
  <unicode hex="0024"/>
  <outline>
    <contour>
      <point x="570" y="427" type="line" smooth="yes"/>
      <point x="613" y="427"/>
      <point x="691" y="394"/>
      <point x="749" y="337"/>
      <point x="784" y="259"/>
      <point x="784" y="213" type="qcurve" smooth="yes"/>
      <point x="784" y="166"/>
      <point x="749" y="88"/>
      <point x="690" y="31"/>
      <point x="613" y="-1"/>
      <point x="570" y="-1" type="qcurve" smooth="yes"/>
      <point x="483" y="-1" type="line"/>
      <point x="483" y="-108" type="line"/>
      <point x="368" y="-108" type="line"/>
      <point x="368" y="-1" type="line"/>
      <point x="282" y="-1" type="line" smooth="yes"/>
      <point x="237" y="-1"/>
      <point x="159" y="32"/>
      <point x="101" y="90"/>
      <point x="68" y="168"/>
      <point x="68" y="213" type="qcurve"/>
      <point x="210" y="213" type="line"/>
      <point x="210" y="199"/>
      <point x="222" y="173"/>
      <point x="242" y="153"/>
      <point x="268" y="141"/>
      <point x="282" y="141" type="qcurve" smooth="yes"/>
      <point x="368" y="142" type="line"/>
      <point x="368" y="284" type="line"/>
      <point x="282" y="284" type="line" smooth="yes"/>
      <point x="236" y="284"/>
      <point x="157" y="318"/>
      <point x="100" y="377"/>
      <point x="68" y="454"/>
      <point x="68" y="498" type="qcurve" smooth="yes"/>
      <point x="68" y="544"/>
      <point x="102" y="622"/>
      <point x="160" y="679"/>
      <point x="238" y="712"/>
      <point x="282" y="712" type="qcurve" smooth="yes"/>
      <point x="368" y="712" type="line"/>
      <point x="368" y="828" type="line"/>
      <point x="483" y="828" type="line"/>
      <point x="483" y="712" type="line"/>
      <point x="570" y="712" type="line" smooth="yes"/>
      <point x="612" y="712"/>
      <point x="690" y="680"/>
      <point x="749" y="623"/>
      <point x="784" y="545"/>
      <point x="784" y="498" type="qcurve"/>
      <point x="641" y="498" type="line"/>
      <point x="641" y="514"/>
      <point x="628" y="542"/>
      <point x="607" y="561"/>
      <point x="582" y="572"/>
      <point x="570" y="572" type="qcurve" smooth="yes"/>
      <point x="483" y="572" type="line"/>
      <point x="483" y="427" type="line"/>
    </contour>
    <contour>
      <point x="233" y="449" type="qcurve" smooth="yes"/>
      <point x="241" y="439"/>
      <point x="267" y="427"/>
      <point x="282" y="427" type="qcurve" smooth="yes"/>
      <point x="368" y="427" type="line"/>
      <point x="368" y="572" type="line"/>
      <point x="282" y="572" type="line" smooth="yes"/>
      <point x="268" y="572"/>
      <point x="242" y="559"/>
      <point x="222" y="538"/>
      <point x="210" y="512"/>
      <point x="210" y="498" type="qcurve" smooth="yes"/>
      <point x="210" y="483"/>
      <point x="223" y="457"/>
    </contour>
    <contour>
      <point x="620" y="164" type="qcurve" smooth="yes"/>
      <point x="629" y="172"/>
      <point x="641" y="198"/>
      <point x="641" y="213" type="qcurve" smooth="yes"/>
      <point x="641" y="245"/>
      <point x="596" y="284"/>
      <point x="570" y="284" type="qcurve" smooth="yes"/>
      <point x="483" y="284" type="line"/>
      <point x="483" y="141" type="line"/>
      <point x="570" y="141" type="line" smooth="yes"/>
      <point x="583" y="141"/>
      <point x="609" y="154"/>
    </contour>
  </outline>
</glyph>
<glyph name="percent" format="1">
  <advance width="1040"/>
  <unicode hex="0025"/>
  <outline>
    <contour>
      <point x="767" y="730" type="line"/>
      <point x="337" y="-16" type="line"/>
      <point x="270" y="-16" type="line"/>
      <point x="701" y="730" type="line"/>
    </contour>
    <contour>
      <point x="461" y="540" type="qcurve" smooth="yes"/>
      <point x="461" y="498"/>
      <point x="430" y="426"/>
      <point x="377" y="373"/>
      <point x="306" y="343"/>
      <point x="265" y="343" type="qcurve" smooth="yes"/>
      <point x="264" y="343" type="line" smooth="yes"/>
      <point x="223" y="343"/>
      <point x="152" y="373"/>
      <point x="99" y="426"/>
      <point x="68" y="498"/>
      <point x="68" y="540" type="qcurve" smooth="yes"/>
      <point x="68" y="581"/>
      <point x="99" y="652"/>
      <point x="152" y="705"/>
      <point x="223" y="736"/>
      <point x="264" y="736" type="qcurve" smooth="yes"/>
      <point x="305" y="736"/>
      <point x="377" y="705"/>
      <point x="430" y="652"/>
      <point x="461" y="581"/>
    </contour>
    <contour>
      <point x="340" y="508" type="qcurve" smooth="yes"/>
      <point x="346" y="521"/>
      <point x="346" y="540" type="qcurve" smooth="yes"/>
      <point x="346" y="556"/>
      <point x="333" y="585"/>
      <point x="311" y="608"/>
      <point x="281" y="621"/>
      <point x="264" y="621" type="qcurve" smooth="yes"/>
      <point x="248" y="621"/>
      <point x="219" y="608"/>
      <point x="196" y="586"/>
      <point x="183" y="557"/>
      <point x="183" y="540" type="qcurve" smooth="yes"/>
      <point x="183" y="508"/>
      <point x="229" y="458"/>
      <point x="264" y="458" type="qcurve" smooth="yes"/>
      <point x="290" y="458"/>
      <point x="329" y="485"/>
    </contour>
    <contour>
      <point x="913" y="312" type="qcurve" smooth="yes"/>
      <point x="940" y="286"/>
      <point x="971" y="215"/>
      <point x="971" y="173" type="qcurve" smooth="yes"/>
      <point x="971" y="132"/>
      <point x="940" y="60"/>
      <point x="887" y="7"/>
      <point x="815" y="-24"/>
      <point x="774" y="-24" type="qcurve" smooth="yes"/>
      <point x="734" y="-24"/>
      <point x="662" y="7"/>
      <point x="608" y="60"/>
      <point x="577" y="132"/>
      <point x="577" y="173" type="qcurve" smooth="yes"/>
      <point x="577" y="214"/>
      <point x="608" y="286"/>
      <point x="662" y="339"/>
      <point x="734" y="370"/>
      <point x="774" y="370" type="qcurve" smooth="yes"/>
      <point x="816" y="370"/>
      <point x="887" y="339"/>
    </contour>
    <contour>
      <point x="850" y="141" type="qcurve" smooth="yes"/>
      <point x="856" y="156"/>
      <point x="856" y="173" type="qcurve" smooth="yes"/>
      <point x="856" y="207"/>
      <point x="808" y="255"/>
      <point x="774" y="255" type="qcurve" smooth="yes"/>
      <point x="740" y="255"/>
      <point x="695" y="208"/>
      <point x="692" y="173" type="qcurve" smooth="yes"/>
      <point x="693" y="159"/>
      <point x="703" y="130"/>
      <point x="724" y="106"/>
      <point x="754" y="91"/>
      <point x="774" y="91" type="qcurve" smooth="yes"/>
      <point x="800" y="91"/>
      <point x="837" y="118"/>
    </contour>
  </outline>
</glyph>
<glyph name="ampersand" format="1">
  <advance width="1040"/>
  <unicode hex="0026"/>
  <outline>
    <contour>
      <point x="786" y="286" type="line"/>
      <point x="786" y="213" type="line" smooth="yes"/>
      <point x="786" y="188"/>
      <point x="823" y="143"/>
      <point x="856" y="143" type="qcurve"/>
      <point x="856" y="-1" type="line"/>
      <point x="816" y="-1"/>
      <point x="743" y="30"/>
      <point x="714" y="55" type="qcurve"/>
      <point x="684" y="29"/>
      <point x="612" y="0"/>
      <point x="572" y="0" type="qcurve" smooth="yes"/>
      <point x="285" y="0" type="line" smooth="yes"/>
      <point x="241" y="0"/>
      <point x="162" y="33"/>
      <point x="104" y="90"/>
      <point x="70" y="169"/>
      <point x="70" y="214" type="qcurve" smooth="yes"/>
      <point x="70" y="296"/>
      <point x="125" y="356" type="qcurve"/>
      <point x="98" y="384"/>
      <point x="70" y="458"/>
      <point x="70" y="500" type="qcurve" smooth="yes"/>
      <point x="70" y="543"/>
      <point x="103" y="621"/>
      <point x="161" y="679"/>
      <point x="240" y="713"/>
      <point x="285" y="713" type="qcurve" smooth="yes"/>
      <point x="358" y="713" type="line" smooth="yes"/>
      <point x="401" y="713"/>
      <point x="478" y="680"/>
      <point x="537" y="622"/>
      <point x="572" y="544"/>
      <point x="572" y="500" type="qcurve"/>
      <point x="428" y="500" type="line"/>
      <point x="428" y="533"/>
      <point x="382" y="570"/>
      <point x="358" y="570" type="qcurve" smooth="yes"/>
      <point x="285" y="570" type="line" smooth="yes"/>
      <point x="253" y="570"/>
      <point x="213" y="530"/>
      <point x="213" y="500" type="qcurve" smooth="yes"/>
      <point x="213" y="467"/>
      <point x="254" y="429"/>
      <point x="285" y="429" type="qcurve" smooth="yes"/>
      <point x="428" y="429" type="line"/>
      <point x="428" y="285" type="line"/>
      <point x="285" y="285" type="line" smooth="yes"/>
      <point x="267" y="285"/>
      <point x="240" y="272"/>
      <point x="222" y="251"/>
      <point x="213" y="226"/>
      <point x="213" y="214" type="qcurve" smooth="yes"/>
      <point x="213" y="182"/>
      <point x="256" y="141"/>
      <point x="285" y="141" type="qcurve" smooth="yes"/>
      <point x="572" y="141" type="line" smooth="yes"/>
      <point x="584" y="141"/>
      <point x="609" y="151"/>
      <point x="629" y="171"/>
      <point x="642" y="197"/>
      <point x="642" y="214" type="qcurve" smooth="yes"/>
      <point x="642" y="629" type="line"/>
      <point x="787" y="629" type="line"/>
      <point x="787" y="429" type="line"/>
      <point x="970" y="429" type="line"/>
      <point x="970" y="286" type="line"/>
    </contour>
  </outline>
</glyph>
<glyph name="quotesingle" format="1">
  <advance width="260"/>
  <unicode hex="0027"/>
  <outline>
    <contour>
      <point x="71" y="534" type="line"/>
      <point x="71" y="712" type="line"/>
      <point x="190" y="712" type="line"/>
      <point x="190" y="594" type="line"/>
    </contour>
  </outline>
</glyph>
<glyph name="parenleft" format="1">
  <advance width="430"/>
  <unicode hex="0028"/>
  <outline>
    <contour>
      <point x="214" y="327" type="qcurve" smooth="yes"/>
      <point x="214" y="290"/>
      <point x="227" y="188"/>
      <point x="259" y="74"/>
      <point x="314" y="-44"/>
      <point x="357" y="-97" type="qcurve"/>
      <point x="263" y="-97" type="line"/>
      <point x="215" y="-60"/>
      <point x="143" y="41"/>
      <point x="95" y="155"/>
      <point x="70" y="274"/>
      <point x="70" y="327" type="qcurve" smooth="yes"/>
      <point x="70" y="379"/>
      <point x="95" y="497"/>
      <point x="144" y="612"/>
      <point x="216" y="714"/>
      <point x="263" y="750" type="qcurve"/>
      <point x="357" y="750" type="line"/>
      <point x="313" y="698"/>
      <point x="257" y="582"/>
      <point x="226" y="468"/>
      <point x="214" y="365"/>
    </contour>
  </outline>
</glyph>
<glyph name="parenright" format="1">
  <advance width="430"/>
  <unicode hex="0029"/>
  <outline>
    <contour>
      <point x="70" y="-98" type="line"/>
      <point x="113" y="-45"/>
      <point x="168" y="73"/>
      <point x="200" y="187"/>
      <point x="213" y="289"/>
      <point x="213" y="326" type="qcurve" smooth="yes"/>
      <point x="213" y="364"/>
      <point x="201" y="467"/>
      <point x="170" y="581"/>
      <point x="114" y="697"/>
      <point x="70" y="749" type="qcurve"/>
      <point x="165" y="749" type="line"/>
      <point x="212" y="713"/>
      <point x="284" y="611"/>
      <point x="332" y="496"/>
      <point x="357" y="378"/>
      <point x="357" y="326" type="qcurve" smooth="yes"/>
      <point x="357" y="273"/>
      <point x="332" y="155"/>
      <point x="284" y="41"/>
      <point x="212" y="-61"/>
      <point x="165" y="-98" type="qcurve"/>
    </contour>
  </outline>
</glyph>
<glyph name="asterisk" format="1">
  <advance width="514"/>
  <unicode hex="002A"/>
  <outline>
    <contour>
      <point x="393" y="665" type="line"/>
      <point x="442" y="578" type="line"/>
      <point x="325" y="531" type="line"/>
      <point x="443" y="483" type="line"/>
      <point x="393" y="397" type="line"/>
      <point x="293" y="475" type="line"/>
      <point x="310" y="349" type="line"/>
      <point x="211" y="349" type="line"/>
      <point x="227" y="475" type="line"/>
      <point x="128" y="397" type="line"/>
      <point x="78" y="483" type="line"/>
      <point x="197" y="531" type="line"/>
      <point x="78" y="578" type="line"/>
      <point x="128" y="664" type="line"/>
      <point x="228" y="587" type="line"/>
      <point x="210" y="712" type="line"/>
      <point x="310" y="712" type="line"/>
      <point x="293" y="587" type="line"/>
    </contour>
  </outline>
</glyph>
<glyph name="plus" format="1">
  <advance width="620"/>
  <unicode hex="002B"/>
  <outline>
    <contour>
      <point x="362" y="263" type="line"/>
      <point x="362" y="72" type="line"/>
      <point x="262" y="72" type="line"/>
      <point x="262" y="263" type="line"/>
      <point x="70" y="263" type="line"/>
      <point x="70" y="363" type="line"/>
      <point x="261" y="363" type="line"/>
      <point x="261" y="554" type="line"/>
      <point x="361" y="554" type="line"/>
      <point x="361" y="363" type="line"/>
      <point x="552" y="363" type="line"/>
      <point x="552" y="263" type="line"/>
    </contour>
  </outline>
</glyph>
<glyph name="comma" format="1">
  <advance width="222"/>
  <unicode hex="002C"/>
  <outline>
    <contour>
      <point x="70" y="-59" type="line"/>
      <point x="70" y="119" type="line"/>
      <point x="189" y="119" type="line"/>
      <point x="189" y="0" type="line"/>
    </contour>
  </outline>
</glyph>
<glyph name="hyphen" format="1">
  <advance width="614"/>
  <unicode hex="002D"/>
  <outline>
    <contour>
      <point x="70" y="256" type="line"/>
      <point x="70" y="375" type="line"/>
      <point x="545" y="375" type="line"/>
      <point x="545" y="256" type="line"/>
    </contour>
  </outline>
</glyph>
<glyph name="period" format="1">
  <advance width="257"/>
  <unicode hex="002E"/>
  <outline>
    <contour>
      <point x="70" y="0" type="line"/>
      <point x="70" y="119" type="line"/>
      <point x="189" y="119" type="line"/>
      <point x="189" y="0" type="line"/>
    </contour>
  </outline>
</glyph>
<glyph name="slash" format="1">
  <advance width="592"/>
  <unicode hex="002F"/>
  <outline>
    <contour>
      <point x="161" y="-17" type="line"/>
      <point x="9" y="-17" type="line"/>
      <point x="431" y="729" type="line"/>
      <point x="583" y="729" type="line"/>
    </contour>
  </outline>
</glyph>
<glyph name="zero" format="1">
  <advance width="832"/>
  <unicode hex="0030"/>
  <outline>
    <contour>
      <point x="309" y="0" type="line" smooth="yes"/>
      <point x="257" y="0"/>
      <point x="166" y="39"/>
      <point x="99" y="106"/>
      <point x="60" y="197"/>
      <point x="60" y="249" type="qcurve" smooth="yes"/>
      <point x="60" y="463" type="line" smooth="yes"/>
      <point x="60" y="517"/>
      <point x="100" y="608"/>
      <point x="168" y="675"/>
      <point x="259" y="712"/>
      <point x="309" y="712" type="qcurve" smooth="yes"/>
      <point x="523" y="712" type="line" smooth="yes"/>
      <point x="573" y="712"/>
      <point x="663" y="675"/>
      <point x="732" y="608"/>
      <point x="772" y="517"/>
      <point x="772" y="463" type="qcurve" smooth="yes"/>
      <point x="772" y="249" type="line" smooth="yes"/>
      <point x="772" y="197"/>
      <point x="733" y="106"/>
      <point x="665" y="39"/>
      <point x="575" y="0"/>
      <point x="523" y="0" type="qcurve" smooth="yes"/>
    </contour>
    <contour>
      <point x="234" y="538" type="qcurve" smooth="yes"/>
      <point x="204" y="508"/>
      <point x="204" y="463" type="qcurve" smooth="yes"/>
      <point x="204" y="249" type="line" smooth="yes"/>
      <point x="204" y="205"/>
      <point x="263" y="144"/>
      <point x="309" y="144" type="qcurve" smooth="yes"/>
      <point x="523" y="144" type="line" smooth="yes"/>
      <point x="545" y="144"/>
      <point x="585" y="161"/>
      <point x="614" y="190"/>
      <point x="631" y="228"/>
      <point x="631" y="249" type="qcurve" smooth="yes"/>
      <point x="631" y="463" type="line" smooth="yes"/>
      <point x="631" y="484"/>
      <point x="613" y="523"/>
      <point x="583" y="553"/>
      <point x="544" y="571"/>
      <point x="523" y="571" type="qcurve" smooth="yes"/>
      <point x="309" y="571" type="line" smooth="yes"/>
      <point x="286" y="571"/>
      <point x="249" y="553"/>
    </contour>
  </outline>
</glyph>
<glyph name="one" format="1">
  <advance width="338"/>
  <unicode hex="0031"/>
  <outline>
    <contour>
      <point x="127" y="712" type="line"/>
      <point x="269" y="712" type="line"/>
      <point x="269" y="0" type="line"/>
      <point x="127" y="0" type="line"/>
      <point x="127" y="510" type="line"/>
      <point x="26" y="413" type="line"/>
      <point x="26" y="614" type="line"/>
    </contour>
  </outline>
</glyph>
<glyph name="two" format="1">
  <advance width="839"/>
  <unicode hex="0032"/>
  <outline>
    <contour>
      <point x="63" y="534" type="line"/>
      <point x="63" y="572"/>
      <point x="92" y="637"/>
      <point x="142" y="685"/>
      <point x="206" y="712"/>
      <point x="241" y="712" type="qcurve" smooth="yes"/>
      <point x="597" y="712" type="line" smooth="yes"/>
      <point x="631" y="712"/>
      <point x="696" y="685"/>
      <point x="745" y="637"/>
      <point x="775" y="572"/>
      <point x="775" y="534" type="qcurve" smooth="yes"/>
      <point x="775" y="487"/>
      <point x="730" y="411"/>
      <point x="692" y="386" type="qcurve" smooth="yes"/>
      <point x="320" y="142" type="line"/>
      <point x="775" y="142" type="line"/>
      <point x="775" y="0" type="line"/>
      <point x="63" y="0" type="line"/>
      <point x="63" y="142" type="line"/>
      <point x="606" y="497" type="line" smooth="yes"/>
      <point x="617" y="505"/>
      <point x="632" y="520"/>
      <point x="632" y="534" type="qcurve" smooth="yes"/>
      <point x="632" y="549"/>
      <point x="611" y="570"/>
      <point x="597" y="570" type="qcurve" smooth="yes"/>
      <point x="241" y="570" type="line" smooth="yes"/>
      <point x="227" y="570"/>
      <point x="205" y="548"/>
      <point x="205" y="534" type="qcurve"/>
    </contour>
  </outline>
</glyph>
<glyph name="three" format="1">
  <advance width="829"/>
  <unicode hex="0033"/>
  <outline>
    <contour>
      <point x="769" y="214" type="qcurve" smooth="yes"/>
      <point x="769" y="169"/>
      <point x="735" y="90"/>
      <point x="676" y="33"/>
      <point x="598" y="0"/>
      <point x="554" y="0" type="qcurve" smooth="yes"/>
      <point x="267" y="0" type="line" smooth="yes"/>
      <point x="226" y="0"/>
      <point x="149" y="32"/>
      <point x="89" y="89"/>
      <point x="53" y="168"/>
      <point x="53" y="214" type="qcurve"/>
      <point x="197" y="214" type="line"/>
      <point x="197" y="197"/>
      <point x="210" y="171"/>
      <point x="230" y="151"/>
      <point x="255" y="141"/>
      <point x="267" y="141" type="qcurve" smooth="yes"/>
      <point x="554" y="141" type="line" smooth="yes"/>
      <point x="583" y="141"/>
      <point x="626" y="182"/>
      <point x="626" y="214" type="qcurve" smooth="yes"/>
      <point x="626" y="226"/>
      <point x="617" y="251"/>
      <point x="599" y="272"/>
      <point x="572" y="285"/>
      <point x="554" y="285" type="qcurve" smooth="yes"/>
      <point x="411" y="285" type="line"/>
      <point x="411" y="429" type="line"/>
      <point x="554" y="429" type="line" smooth="yes"/>
      <point x="585" y="429"/>
      <point x="626" y="467"/>
      <point x="626" y="500" type="qcurve" smooth="yes"/>
      <point x="626" y="530"/>
      <point x="585" y="570"/>
      <point x="554" y="570" type="qcurve" smooth="yes"/>
      <point x="267" y="570" type="line" smooth="yes"/>
      <point x="242" y="570"/>
      <point x="197" y="533"/>
      <point x="197" y="500" type="qcurve"/>
      <point x="53" y="500" type="line"/>
      <point x="53" y="544"/>
      <point x="88" y="622"/>
      <point x="147" y="680"/>
      <point x="224" y="713"/>
      <point x="267" y="713" type="qcurve" smooth="yes"/>
      <point x="554" y="713" type="line" smooth="yes"/>
      <point x="599" y="713"/>
      <point x="678" y="679"/>
      <point x="736" y="621"/>
      <point x="769" y="543"/>
      <point x="769" y="500" type="qcurve" smooth="yes"/>
      <point x="769" y="458"/>
      <point x="741" y="384"/>
      <point x="714" y="356" type="qcurve"/>
      <point x="769" y="296"/>
    </contour>
  </outline>
</glyph>
<glyph name="four" format="1">
  <advance width="780"/>
  <unicode hex="0034"/>
  <outline>
    <contour>
      <point x="656" y="713" type="line"/>
      <point x="656" y="216" type="line"/>
      <point x="726" y="216" type="line"/>
      <point x="726" y="73" type="line"/>
      <point x="656" y="73" type="line"/>
      <point x="656" y="0" type="line"/>
      <point x="513" y="0" type="line"/>
      <point x="513" y="73" type="line"/>
      <point x="18" y="73" type="line"/>
      <point x="16" y="73" type="line"/>
      <point x="16" y="216" type="line"/>
      <point x="513" y="713" type="line"/>
    </contour>
    <contour>
      <point x="513" y="216" type="line"/>
      <point x="513" y="513" type="line"/>
      <point x="216" y="216" type="line"/>
    </contour>
  </outline>
</glyph>
<glyph name="five" format="1">
  <advance width="831"/>
  <unicode hex="0035"/>
  <outline>
    <contour>
      <point x="203" y="567" type="line"/>
      <point x="203" y="497" type="line"/>
      <point x="521" y="497" type="line" smooth="yes"/>
      <point x="572" y="497"/>
      <point x="662" y="459"/>
      <point x="730" y="392"/>
      <point x="770" y="300"/>
      <point x="770" y="246" type="qcurve" smooth="yes"/>
      <point x="770" y="195"/>
      <point x="731" y="106"/>
      <point x="664" y="39"/>
      <point x="574" y="0"/>
      <point x="523" y="0" type="qcurve" smooth="yes"/>
      <point x="307" y="0" type="line" smooth="yes"/>
      <point x="254" y="0"/>
      <point x="164" y="40"/>
      <point x="98" y="107"/>
      <point x="61" y="196"/>
      <point x="61" y="246" type="qcurve"/>
      <point x="203" y="246" type="line"/>
      <point x="203" y="224"/>
      <point x="219" y="186"/>
      <point x="248" y="158"/>
      <point x="286" y="142"/>
      <point x="307" y="142" type="qcurve" smooth="yes"/>
      <point x="521" y="142" type="line" smooth="yes"/>
      <point x="544" y="142"/>
      <point x="583" y="158"/>
      <point x="611" y="187"/>
      <point x="627" y="225"/>
      <point x="627" y="246" type="qcurve" smooth="yes"/>
      <point x="627" y="272"/>
      <point x="608" y="313"/>
      <point x="578" y="341"/>
      <point x="540" y="355"/>
      <point x="521" y="355" type="qcurve" smooth="yes"/>
      <point x="130" y="355" type="line"/>
      <point x="61" y="424" type="line"/>
      <point x="61" y="601" type="line"/>
      <point x="61" y="709" type="line"/>
      <point x="770" y="709" type="line"/>
      <point x="770" y="567" type="line"/>
    </contour>
  </outline>
</glyph>
<glyph name="six" format="1">
  <advance width="833"/>
  <unicode hex="0036"/>
  <outline>
    <contour>
      <point x="562" y="430" type="line" smooth="yes"/>
      <point x="607" y="430"/>
      <point x="685" y="395"/>
      <point x="743" y="335"/>
      <point x="776" y="258"/>
      <point x="776" y="216" type="qcurve" smooth="yes"/>
      <point x="776" y="171"/>
      <point x="742" y="93"/>
      <point x="684" y="34"/>
      <point x="606" y="0"/>
      <point x="562" y="0" type="qcurve" smooth="yes"/>
      <point x="276" y="0" type="line" smooth="yes"/>
      <point x="232" y="0"/>
      <point x="154" y="34"/>
      <point x="96" y="93"/>
      <point x="63" y="171"/>
      <point x="63" y="216" type="qcurve" smooth="yes"/>
      <point x="63" y="500" type="line" smooth="yes"/>
      <point x="63" y="544"/>
      <point x="96" y="622"/>
      <point x="154" y="680"/>
      <point x="232" y="713"/>
      <point x="276" y="713" type="qcurve" smooth="yes"/>
      <point x="562" y="713" type="line" smooth="yes"/>
      <point x="606" y="713"/>
      <point x="684" y="679"/>
      <point x="742" y="621"/>
      <point x="776" y="544"/>
      <point x="776" y="500" type="qcurve"/>
      <point x="632" y="500" type="line"/>
      <point x="632" y="534"/>
      <point x="587" y="570"/>
      <point x="562" y="570" type="qcurve" smooth="yes"/>
      <point x="276" y="570" type="line" smooth="yes"/>
      <point x="247" y="570"/>
      <point x="206" y="531"/>
      <point x="206" y="500" type="qcurve" smooth="yes"/>
      <point x="206" y="417" type="line"/>
      <point x="223" y="422"/>
      <point x="257" y="430"/>
      <point x="276" y="430" type="qcurve" smooth="yes"/>
    </contour>
    <contour>
      <point x="612" y="165" type="qcurve" smooth="yes"/>
      <point x="632" y="185"/>
      <point x="632" y="216" type="qcurve" smooth="yes"/>
      <point x="632" y="244"/>
      <point x="591" y="286"/>
      <point x="562" y="286" type="qcurve" smooth="yes"/>
      <point x="276" y="286" type="line" smooth="yes"/>
      <point x="243" y="286"/>
      <point x="206" y="242"/>
      <point x="206" y="216" type="qcurve" smooth="yes"/>
      <point x="206" y="187"/>
      <point x="245" y="144"/>
      <point x="276" y="144" type="qcurve" smooth="yes"/>
      <point x="562" y="144" type="line" smooth="yes"/>
      <point x="591" y="144"/>
    </contour>
  </outline>
</glyph>
<glyph name="seven" format="1">
  <advance width="790"/>
  <unicode hex="0037"/>
  <outline>
    <contour>
      <point x="62" y="712" type="line"/>
      <point x="774" y="712" type="line"/>
      <point x="774" y="568" type="line"/>
      <point x="255" y="0" type="line"/>
      <point x="62" y="0" type="line"/>
      <point x="583" y="568" type="line"/>
      <point x="62" y="568" type="line"/>
    </contour>
  </outline>
</glyph>
<glyph name="eight" format="1">
  <advance width="824"/>
  <unicode hex="0038"/>
  <outline>
    <contour>
      <point x="707" y="365" type="qcurve" smooth="yes"/>
      <point x="735" y="335"/>
      <point x="769" y="259"/>
      <point x="769" y="214" type="qcurve" smooth="yes"/>
      <point x="769" y="168"/>
      <point x="734" y="90"/>
      <point x="676" y="33"/>
      <point x="598" y="0"/>
      <point x="556" y="0" type="qcurve" smooth="yes"/>
      <point x="268" y="0" type="line" smooth="yes"/>
      <point x="226" y="0"/>
      <point x="149" y="32"/>
      <point x="90" y="89"/>
      <point x="55" y="168"/>
      <point x="55" y="214" type="qcurve" smooth="yes"/>
      <point x="55" y="259"/>
      <point x="89" y="335"/>
      <point x="117" y="365" type="qcurve" smooth="yes"/>
      <point x="127" y="373"/>
      <point x="146" y="387"/>
      <point x="157" y="396" type="qcurve"/>
      <point x="154" y="397"/>
      <point x="146" y="404"/>
      <point x="143" y="407" type="qcurve" smooth="yes"/>
      <point x="118" y="432"/>
      <point x="90" y="498"/>
      <point x="90" y="534" type="qcurve" smooth="yes"/>
      <point x="90" y="570"/>
      <point x="118" y="635"/>
      <point x="166" y="684"/>
      <point x="231" y="712"/>
      <point x="268" y="712" type="qcurve" smooth="yes"/>
      <point x="553" y="712" type="line" smooth="yes"/>
      <point x="590" y="712"/>
      <point x="655" y="684"/>
      <point x="703" y="635"/>
      <point x="731" y="570"/>
      <point x="731" y="534" type="qcurve" smooth="yes"/>
      <point x="731" y="492"/>
      <point x="696" y="425"/>
      <point x="667" y="396" type="qcurve"/>
      <point x="678" y="389"/>
      <point x="697" y="373"/>
    </contour>
    <contour>
      <point x="244" y="558" type="qcurve" smooth="yes"/>
      <point x="237" y="553"/>
      <point x="233" y="542"/>
      <point x="233" y="534" type="qcurve" smooth="yes"/>
      <point x="233" y="519"/>
      <point x="253" y="498"/>
      <point x="268" y="498" type="qcurve" smooth="yes"/>
      <point x="553" y="498" type="line" smooth="yes"/>
      <point x="570" y="498"/>
      <point x="589" y="518"/>
      <point x="589" y="534" type="qcurve" smooth="yes"/>
      <point x="589" y="549"/>
      <point x="568" y="568"/>
      <point x="553" y="568" type="qcurve" smooth="yes"/>
      <point x="268" y="568" type="line" smooth="yes"/>
      <point x="260" y="568"/>
      <point x="249" y="565"/>
    </contour>
    <contour>
      <point x="606" y="164" type="qcurve" smooth="yes"/>
      <point x="626" y="184"/>
      <point x="626" y="214" type="qcurve" smooth="yes"/>
      <point x="626" y="225"/>
      <point x="617" y="250"/>
      <point x="600" y="271"/>
      <point x="574" y="285"/>
      <point x="556" y="285" type="qcurve" smooth="yes"/>
      <point x="268" y="285" type="line" smooth="yes"/>
      <point x="239" y="285"/>
      <point x="198" y="242"/>
      <point x="198" y="214" type="qcurve" smooth="yes"/>
      <point x="198" y="198"/>
      <point x="211" y="171"/>
      <point x="231" y="152"/>
      <point x="256" y="141"/>
      <point x="268" y="141" type="qcurve" smooth="yes"/>
      <point x="556" y="141" type="line" smooth="yes"/>
      <point x="586" y="141"/>
    </contour>
  </outline>
</glyph>
<glyph name="nine" format="1">
  <advance width="831"/>
  <unicode hex="0039"/>
  <outline>
    <contour>
      <point x="706" y="652" type="qcurve" smooth="yes"/>
      <point x="736" y="621"/>
      <point x="769" y="543"/>
      <point x="769" y="498" type="qcurve" smooth="yes"/>
      <point x="769" y="214" type="line" smooth="yes"/>
      <point x="769" y="172"/>
      <point x="736" y="94"/>
      <point x="679" y="35"/>
      <point x="600" y="0"/>
      <point x="555" y="0" type="qcurve" smooth="yes"/>
      <point x="270" y="0" type="line" smooth="yes"/>
      <point x="226" y="0"/>
      <point x="149" y="34"/>
      <point x="91" y="93"/>
      <point x="57" y="170"/>
      <point x="57" y="214" type="qcurve"/>
      <point x="200" y="214" type="line"/>
      <point x="200" y="184"/>
      <point x="241" y="144"/>
      <point x="270" y="144" type="qcurve" smooth="yes"/>
      <point x="555" y="144" type="line" smooth="yes"/>
      <point x="584" y="144"/>
      <point x="628" y="185"/>
      <point x="628" y="214" type="qcurve" smooth="yes"/>
      <point x="628" y="296" type="line"/>
      <point x="590" y="285"/>
      <point x="555" y="285" type="qcurve" smooth="yes"/>
      <point x="270" y="285" type="line" smooth="yes"/>
      <point x="226" y="285"/>
      <point x="149" y="318"/>
      <point x="91" y="376"/>
      <point x="57" y="453"/>
      <point x="57" y="498" type="qcurve" smooth="yes"/>
      <point x="57" y="543"/>
      <point x="90" y="621"/>
      <point x="147" y="679"/>
      <point x="225" y="712"/>
      <point x="270" y="712" type="qcurve" smooth="yes"/>
      <point x="555" y="712" type="line" smooth="yes"/>
      <point x="600" y="712"/>
      <point x="677" y="680"/>
    </contour>
    <contour>
      <point x="605" y="447" type="qcurve" smooth="yes"/>
      <point x="628" y="470"/>
      <point x="628" y="498" type="qcurve" smooth="yes"/>
      <point x="628" y="527"/>
      <point x="584" y="571"/>
      <point x="555" y="571" type="qcurve" smooth="yes"/>
      <point x="270" y="571" type="line" smooth="yes"/>
      <point x="241" y="571"/>
      <point x="200" y="528"/>
      <point x="200" y="498" type="qcurve" smooth="yes"/>
      <point x="200" y="472"/>
      <point x="237" y="427"/>
      <point x="270" y="427" type="qcurve" smooth="yes"/>
      <point x="555" y="427" type="line" smooth="yes"/>
      <point x="570" y="427"/>
      <point x="595" y="439"/>
    </contour>
  </outline>
</glyph>
<glyph name="colon" format="1">
  <advance width="257"/>
  <unicode hex="003A"/>
  <outline>
    <contour>
      <point x="70" y="0" type="line"/>
      <point x="70" y="119" type="line"/>
      <point x="189" y="119" type="line"/>
      <point x="189" y="0" type="line"/>
    </contour>
    <contour>
      <point x="70" y="257" type="line"/>
      <point x="70" y="376" type="line"/>
      <point x="189" y="376" type="line"/>
      <point x="189" y="257" type="line"/>
    </contour>
  </outline>
</glyph>
<glyph name="semicolon" format="1">
  <advance width="233"/>
  <unicode hex="003B"/>
  <outline>
    <contour>
      <point x="70" y="257" type="line"/>
      <point x="70" y="376" type="line"/>
      <point x="189" y="376" type="line"/>
      <point x="189" y="257" type="line"/>
    </contour>
    <contour>
      <point x="70" y="-59" type="line"/>
      <point x="70" y="119" type="line"/>
      <point x="189" y="119" type="line"/>
      <point x="189" y="0" type="line"/>
    </contour>
  </outline>
</glyph>
<glyph name="less" format="1">
  <advance width="610"/>
  <unicode hex="003C"/>
  <outline>
    <contour>
      <point x="541" y="131" type="line"/>
      <point x="541" y="29" type="line"/>
      <point x="70" y="301" type="line"/>
      <point x="70" y="402" type="line"/>
      <point x="541" y="674" type="line"/>
      <point x="541" y="571" type="line"/>
      <point x="158" y="351" type="line"/>
    </contour>
  </outline>
</glyph>
<glyph name="equal" format="1">
  <advance width="622"/>
  <unicode hex="003D"/>
  <outline>
    <contour>
      <point x="362" y="363" type="line"/>
      <point x="70" y="363" type="line"/>
      <point x="70" y="463" type="line"/>
      <point x="361" y="463" type="line"/>
      <point x="552" y="463" type="line"/>
      <point x="552" y="363" type="line"/>
    </contour>
    <contour>
      <point x="362" y="163" type="line"/>
      <point x="70" y="163" type="line"/>
      <point x="70" y="263" type="line"/>
      <point x="361" y="263" type="line"/>
      <point x="552" y="263" type="line"/>
      <point x="552" y="163" type="line"/>
    </contour>
  </outline>
</glyph>
<glyph name="greater" format="1">
  <advance width="610"/>
  <unicode hex="003E"/>
  <outline>
    <contour>
      <point x="70" y="130" type="line"/>
      <point x="453" y="350" type="line"/>
      <point x="70" y="570" type="line"/>
      <point x="70" y="673" type="line"/>
      <point x="541" y="401" type="line"/>
      <point x="541" y="300" type="line"/>
      <point x="70" y="28" type="line"/>
    </contour>
  </outline>
</glyph>
<glyph name="question" format="1">
  <advance width="830"/>
  <unicode hex="003F"/>
  <outline>
    <contour>
      <point x="724" y="650" type="qcurve" smooth="yes"/>
      <point x="752" y="621"/>
      <point x="786" y="543"/>
      <point x="786" y="498" type="qcurve" smooth="yes"/>
      <point x="786" y="454"/>
      <point x="753" y="377"/>
      <point x="695" y="318"/>
      <point x="617" y="284"/>
      <point x="572" y="284" type="qcurve" smooth="yes"/>
      <point x="556" y="284"/>
      <point x="530" y="271"/>
      <point x="512" y="251"/>
      <point x="502" y="226"/>
      <point x="502" y="214" type="qcurve" smooth="yes"/>
      <point x="502" y="141" type="line"/>
      <point x="358" y="141" type="line"/>
      <point x="358" y="214" type="line" smooth="yes"/>
      <point x="358" y="257"/>
      <point x="391" y="335"/>
      <point x="449" y="393"/>
      <point x="527" y="428"/>
      <point x="572" y="428" type="qcurve" smooth="yes"/>
      <point x="600" y="428"/>
      <point x="642" y="466"/>
      <point x="642" y="498" type="qcurve" smooth="yes"/>
      <point x="642" y="532"/>
      <point x="599" y="569"/>
      <point x="572" y="569" type="qcurve" smooth="yes"/>
      <point x="285" y="569" type="line" smooth="yes"/>
      <point x="258" y="569"/>
      <point x="215" y="532"/>
      <point x="215" y="498" type="qcurve"/>
      <point x="71" y="498" type="line"/>
      <point x="71" y="543"/>
      <point x="104" y="621"/>
      <point x="162" y="679"/>
      <point x="240" y="712"/>
      <point x="285" y="712" type="qcurve" smooth="yes"/>
      <point x="572" y="712" type="line" smooth="yes"/>
      <point x="617" y="712"/>
      <point x="695" y="678"/>
    </contour>
    <contour>
      <point x="499" y="0" type="line"/>
      <point x="355" y="0" type="line"/>
      <point x="355" y="43" type="line"/>
      <point x="499" y="43" type="line"/>
    </contour>
  </outline>
</glyph>
<glyph name="at" format="1">
  <advance width="910"/>
  <unicode hex="0040"/>
  <outline>
    <contour>
      <point x="553" y="-49" type="line" smooth="yes"/>
      <point x="619" y="-49"/>
      <point x="731" y="0"/>
      <point x="773" y="42" type="qcurve"/>
      <point x="826" y="-10" type="line"/>
      <point x="772" y="-64"/>
      <point x="634" y="-123"/>
      <point x="553" y="-123" type="qcurve" smooth="yes"/>
      <point x="455" y="-123" type="line" smooth="yes"/>
      <point x="374" y="-123"/>
      <point x="234" y="-62"/>
      <point x="130" y="43"/>
      <point x="70" y="183"/>
      <point x="70" y="263" type="qcurve" smooth="yes"/>
      <point x="70" y="457" type="line" smooth="yes"/>
      <point x="70" y="537"/>
      <point x="130" y="677"/>
      <point x="235" y="782"/>
      <point x="375" y="842"/>
      <point x="455" y="842" type="qcurve" smooth="yes"/>
      <point x="534" y="842"/>
      <point x="675" y="782"/>
      <point x="780" y="678"/>
      <point x="841" y="537"/>
      <point x="841" y="457" type="qcurve" smooth="yes"/>
      <point x="841" y="382"/>
      <point x="789" y="250"/>
      <point x="698" y="149"/>
      <point x="574" y="83"/>
      <point x="503" y="74" type="qcurve" smooth="yes"/>
      <point x="495" y="72"/>
      <point x="481" y="71"/>
      <point x="474" y="71" type="qcurve" smooth="yes"/>
      <point x="455" y="71" type="line"/>
      <point x="455" y="72" type="line"/>
      <point x="421" y="76"/>
      <point x="363" y="108"/>
      <point x="320" y="158"/>
      <point x="295" y="223"/>
      <point x="295" y="261" type="qcurve" smooth="yes"/>
      <point x="295" y="300"/>
      <point x="323" y="369"/>
      <point x="372" y="420"/>
      <point x="437" y="450"/>
      <point x="474" y="450" type="qcurve" smooth="yes"/>
      <point x="492" y="450"/>
      <point x="532" y="439"/>
      <point x="566" y="425" type="qcurve"/>
      <point x="566" y="498" type="line" smooth="yes"/>
      <point x="566" y="533"/>
      <point x="520" y="582"/>
      <point x="488" y="582" type="qcurve" smooth="yes"/>
      <point x="460" y="582"/>
      <point x="418" y="545"/>
      <point x="412" y="517" type="qcurve"/>
      <point x="325" y="517" type="line"/>
      <point x="328" y="550"/>
      <point x="356" y="607"/>
      <point x="400" y="649"/>
      <point x="456" y="673"/>
      <point x="488" y="673" type="qcurve" smooth="yes"/>
      <point x="522" y="673"/>
      <point x="582" y="646"/>
      <point x="626" y="598"/>
      <point x="652" y="534"/>
      <point x="652" y="498" type="qcurve" smooth="yes"/>
      <point x="652" y="215" type="line"/>
      <point x="676" y="236" type="line"/>
      <point x="718" y="279"/>
      <point x="767" y="391"/>
      <point x="767" y="457" type="qcurve" smooth="yes"/>
      <point x="767" y="521"/>
      <point x="718" y="635"/>
      <point x="633" y="719"/>
      <point x="519" y="768"/>
      <point x="455" y="768" type="qcurve" smooth="yes"/>
      <point x="390" y="768"/>
      <point x="277" y="719"/>
      <point x="193" y="635"/>
      <point x="144" y="521"/>
      <point x="144" y="457" type="qcurve" smooth="yes"/>
      <point x="144" y="263" type="line" smooth="yes"/>
      <point x="144" y="198"/>
      <point x="193" y="84"/>
      <point x="277" y="0"/>
      <point x="390" y="-49"/>
      <point x="455" y="-49" type="qcurve" smooth="yes"/>
    </contour>
    <contour>
      <point x="381" y="261" type="qcurve" smooth="yes"/>
      <point x="381" y="241"/>
      <point x="396" y="205"/>
      <point x="421" y="178"/>
      <point x="455" y="162"/>
      <point x="474" y="162" type="qcurve" smooth="yes"/>
      <point x="493" y="162"/>
      <point x="526" y="178"/>
      <point x="551" y="205"/>
      <point x="566" y="241"/>
      <point x="566" y="261" type="qcurve" smooth="yes"/>
      <point x="566" y="280"/>
      <point x="551" y="316"/>
      <point x="526" y="343"/>
      <point x="493" y="359"/>
      <point x="474" y="359" type="qcurve" smooth="yes"/>
      <point x="455" y="359"/>
      <point x="421" y="343"/>
      <point x="396" y="316"/>
      <point x="381" y="280"/>
    </contour>
  </outline>
</glyph>
<glyph name="A" format="1">
  <advance width="777"/>
  <unicode hex="0041"/>
  <outline>
    <contour>
      <point x="310" y="713" type="line"/>
      <point x="465" y="713" type="line"/>
      <point x="746" y="0" type="line"/>
      <point x="592" y="0" type="line"/>
      <point x="550" y="105" type="line"/>
      <point x="228" y="105" type="line"/>
      <point x="185" y="0" type="line"/>
      <point x="31" y="0" type="line"/>
    </contour>
    <contour>
      <point x="283" y="250" type="line"/>
      <point x="494" y="250" type="line"/>
      <point x="389" y="519" type="line"/>
    </contour>
  </outline>
</glyph>
<glyph name="C" format="1">
  <advance width="830"/>
  <unicode hex="0043"/>
  <outline>
    <contour>
      <point x="702" y="247" type="line"/>
      <point x="776" y="247" type="line"/>
      <point x="776" y="196"/>
      <point x="736" y="106"/>
      <point x="668" y="39"/>
      <point x="578" y="0"/>
      <point x="527" y="0" type="qcurve" smooth="yes"/>
      <point x="312" y="0" type="line" smooth="yes"/>
      <point x="259" y="0"/>
      <point x="167" y="39"/>
      <point x="99" y="106"/>
      <point x="60" y="197"/>
      <point x="60" y="249" type="qcurve" smooth="yes"/>
      <point x="60" y="464" type="line" smooth="yes"/>
      <point x="60" y="516"/>
      <point x="99" y="606"/>
      <point x="167" y="674"/>
      <point x="259" y="713"/>
      <point x="312" y="713" type="qcurve" smooth="yes"/>
      <point x="527" y="713" type="line" smooth="yes"/>
      <point x="577" y="713"/>
      <point x="668" y="674"/>
      <point x="736" y="607"/>
      <point x="776" y="518"/>
      <point x="776" y="467" type="qcurve"/>
      <point x="632" y="467" type="line"/>
      <point x="632" y="488"/>
      <point x="615" y="526"/>
      <point x="586" y="555"/>
      <point x="548" y="572"/>
      <point x="527" y="572" type="qcurve" smooth="yes"/>
      <point x="312" y="572" type="line" smooth="yes"/>
      <point x="289" y="572"/>
      <point x="250" y="556"/>
      <point x="221" y="527"/>
      <point x="204" y="487"/>
      <point x="204" y="464" type="qcurve" smooth="yes"/>
      <point x="204" y="249" type="line" smooth="yes"/>
      <point x="204" y="202"/>
      <point x="266" y="144"/>
      <point x="312" y="144" type="qcurve" smooth="yes"/>
      <point x="527" y="144" type="line" smooth="yes"/>
      <point x="548" y="144"/>
      <point x="587" y="160"/>
      <point x="615" y="188"/>
      <point x="632" y="225"/>
      <point x="632" y="247" type="qcurve"/>
    </contour>
  </outline>
</glyph>
<glyph name="D" format="1">
  <advance width="838"/>
  <unicode hex="0044"/>
  <outline>
    <contour>
      <point x="706" y="636" type="qcurve" smooth="yes"/>
      <point x="740" y="604"/>
      <point x="779" y="515"/>
      <point x="779" y="461" type="qcurve" smooth="yes"/>
      <point x="779" y="248" type="line" smooth="yes"/>
      <point x="779" y="197"/>
      <point x="739" y="106"/>
      <point x="672" y="39"/>
      <point x="582" y="0"/>
      <point x="531" y="0" type="qcurve" smooth="yes"/>
      <point x="70" y="0" type="line"/>
      <point x="70" y="712" type="line"/>
      <point x="531" y="712" type="line" smooth="yes"/>
      <point x="582" y="712"/>
      <point x="672" y="670"/>
    </contour>
    <contour>
      <point x="638" y="461" type="line" smooth="yes"/>
      <point x="638" y="482"/>
      <point x="620" y="521"/>
      <point x="591" y="550"/>
      <point x="552" y="568"/>
      <point x="531" y="568" type="qcurve" smooth="yes"/>
      <point x="212" y="568" type="line"/>
      <point x="212" y="142" type="line"/>
      <point x="531" y="142" type="line" smooth="yes"/>
      <point x="553" y="142"/>
      <point x="592" y="159"/>
      <point x="621" y="189"/>
      <point x="638" y="227"/>
      <point x="638" y="248" type="qcurve" smooth="yes"/>
    </contour>
  </outline>
</glyph>
<glyph name="F" format="1">
  <advance width="787"/>
  <unicode hex="0046"/>
  <outline>
    <contour>
      <point x="781" y="570" type="line"/>
      <point x="208" y="570" type="line"/>
      <point x="208" y="428" type="line"/>
      <point x="507" y="428" type="line"/>
      <point x="507" y="285" type="line"/>
      <point x="208" y="285" type="line"/>
      <point x="208" y="0" type="line"/>
      <point x="70" y="0" type="line"/>
      <point x="70" y="711" type="line"/>
      <point x="781" y="711" type="line"/>
    </contour>
  </outline>
</glyph>
<glyph name="J" format="1">
  <advance width="780"/>
  <unicode hex="004A"/>
  <outline>
    <contour>
      <point x="253" y="0" type="line" smooth="yes"/>
      <point x="202" y="0"/>
      <point x="112" y="40"/>
      <point x="45" y="107"/>
      <point x="5" y="197"/>
      <point x="5" y="248" type="qcurve"/>
      <point x="146" y="248" type="line"/>
      <point x="146" y="226"/>
      <point x="163" y="187"/>
      <point x="192" y="159"/>
      <point x="231" y="142"/>
      <point x="253" y="142" type="qcurve" smooth="yes"/>
      <point x="467" y="142" type="line" smooth="yes"/>
      <point x="489" y="142"/>
      <point x="529" y="159"/>
      <point x="557" y="187"/>
      <point x="574" y="226"/>
      <point x="574" y="248" type="qcurve" smooth="yes"/>
      <point x="574" y="711" type="line"/>
      <point x="716" y="711" type="line"/>
      <point x="716" y="248" type="line" smooth="yes"/>
      <point x="716" y="197"/>
      <point x="676" y="107"/>
      <point x="609" y="40"/>
      <point x="518" y="0"/>
      <point x="467" y="0" type="qcurve" smooth="yes"/>
    </contour>
  </outline>
</glyph>
<glyph name="L" format="1">
  <advance width="789"/>
  <unicode hex="004C"/>
  <outline>
    <contour>
      <point x="782" y="144" type="line"/>
      <point x="782" y="0" type="line"/>
      <point x="70" y="0" type="line"/>
      <point x="70" y="712" type="line"/>
      <point x="211" y="712" type="line"/>
      <point x="211" y="144" type="line"/>
    </contour>
  </outline>
</glyph>
<glyph name="M" format="1">
  <advance width="851"/>
  <unicode hex="004D"/>
  <outline>
    <contour>
      <point x="638" y="711" type="line"/>
      <point x="781" y="711" type="line"/>
      <point x="781" y="0" type="line"/>
      <point x="638" y="0" type="line"/>
      <point x="638" y="509" type="line"/>
      <point x="524" y="397" type="line"/>
      <point x="527" y="397" type="line"/>
      <point x="425" y="297" type="line"/>
      <point x="210" y="509" type="line"/>
      <point x="210" y="0" type="line"/>
      <point x="70" y="0" type="line"/>
      <point x="70" y="711" type="line"/>
      <point x="213" y="711" type="line"/>
      <point x="425" y="498" type="line"/>
    </contour>
  </outline>
</glyph>
<glyph name="N" format="1">
  <advance width="854"/>
  <unicode hex="004E"/>
  <outline>
    <contour>
      <point x="165" y="711" type="line"/>
      <point x="213" y="711" type="line"/>
      <point x="641" y="465" type="line"/>
      <point x="641" y="711" type="line"/>
      <point x="784" y="711" type="line"/>
      <point x="784" y="0" type="line"/>
      <point x="641" y="0" type="line"/>
      <point x="641" y="302" type="line"/>
      <point x="213" y="548" type="line"/>
      <point x="213" y="0" type="line"/>
      <point x="70" y="0" type="line"/>
      <point x="70" y="711" type="line"/>
    </contour>
  </outline>
</glyph>
<glyph name="Q" format="1">
  <advance width="832"/>
  <unicode hex="0051"/>
  <outline>
    <contour>
      <point x="770" y="249" type="line" smooth="yes"/>
      <point x="770" y="206"/>
      <point x="741" y="125"/>
      <point x="715" y="95" type="qcurve"/>
      <point x="770" y="0" type="line"/>
      <point x="608" y="0" type="line"/>
      <point x="599" y="13" type="line"/>
      <point x="580" y="8"/>
      <point x="541" y="0"/>
      <point x="521" y="0" type="qcurve" smooth="yes"/>
      <point x="308" y="0" type="line" smooth="yes"/>
      <point x="256" y="0"/>
      <point x="165" y="39"/>
      <point x="98" y="106"/>
      <point x="59" y="197"/>
      <point x="59" y="249" type="qcurve" smooth="yes"/>
      <point x="59" y="462" type="line" smooth="yes"/>
      <point x="59" y="515"/>
      <point x="99" y="607"/>
      <point x="167" y="675"/>
      <point x="258" y="714"/>
      <point x="308" y="714" type="qcurve" smooth="yes"/>
      <point x="521" y="714" type="line" smooth="yes"/>
      <point x="570" y="714"/>
      <point x="660" y="676"/>
      <point x="729" y="609"/>
      <point x="770" y="516"/>
      <point x="770" y="462" type="qcurve" smooth="yes"/>
    </contour>
    <contour>
      <point x="628" y="249" type="line"/>
      <point x="628" y="462" type="line" smooth="yes"/>
      <point x="628" y="487"/>
      <point x="610" y="527"/>
      <point x="581" y="555"/>
      <point x="542" y="570"/>
      <point x="521" y="570" type="qcurve" smooth="yes"/>
      <point x="308" y="570" type="line" smooth="yes"/>
      <point x="286" y="570"/>
      <point x="247" y="554"/>
      <point x="217" y="525"/>
      <point x="200" y="486"/>
      <point x="200" y="462" type="qcurve" smooth="yes"/>
      <point x="200" y="249" type="line" smooth="yes"/>
      <point x="200" y="228"/>
      <point x="215" y="190"/>
      <point x="244" y="160"/>
      <point x="284" y="142"/>
      <point x="308" y="142" type="qcurve" smooth="yes"/>
      <point x="524" y="142" type="line"/>
      <point x="462" y="249" type="line"/>
    </contour>
  </outline>
</glyph>
<glyph name="S" format="1">
  <advance width="830"/>
  <unicode hex="0053"/>
  <outline>
    <contour>
      <point x="559" y="428" type="line" smooth="yes"/>
      <point x="602" y="428"/>
      <point x="680" y="395"/>
      <point x="738" y="338"/>
      <point x="773" y="260"/>
      <point x="773" y="214" type="qcurve" smooth="yes"/>
      <point x="773" y="167"/>
      <point x="738" y="89"/>
      <point x="679" y="32"/>
      <point x="602" y="0"/>
      <point x="559" y="0" type="qcurve" smooth="yes"/>
      <point x="271" y="0" type="line" smooth="yes"/>
      <point x="226" y="0"/>
      <point x="148" y="33"/>
      <point x="90" y="91"/>
      <point x="57" y="169"/>
      <point x="57" y="214" type="qcurve"/>
      <point x="199" y="214" type="line"/>
      <point x="199" y="186"/>
      <point x="243" y="142"/>
      <point x="271" y="142" type="qcurve" smooth="yes"/>
      <point x="559" y="142" type="line" smooth="yes"/>
      <point x="570" y="142"/>
      <point x="595" y="152"/>
      <point x="616" y="171"/>
      <point x="630" y="198"/>
      <point x="630" y="214" type="qcurve" smooth="yes"/>
      <point x="630" y="246"/>
      <point x="585" y="285"/>
      <point x="559" y="285" type="qcurve" smooth="yes"/>
      <point x="271" y="285" type="line" smooth="yes"/>
      <point x="225" y="285"/>
      <point x="146" y="319"/>
      <point x="89" y="378"/>
      <point x="57" y="455"/>
      <point x="57" y="499" type="qcurve" smooth="yes"/>
      <point x="57" y="545"/>
      <point x="91" y="623"/>
      <point x="149" y="680"/>
      <point x="227" y="713"/>
      <point x="271" y="713" type="qcurve" smooth="yes"/>
      <point x="559" y="713" type="line" smooth="yes"/>
      <point x="601" y="713"/>
      <point x="679" y="681"/>
      <point x="738" y="624"/>
      <point x="773" y="546"/>
      <point x="773" y="499" type="qcurve"/>
      <point x="630" y="499" type="line"/>
      <point x="630" y="515"/>
      <point x="617" y="543"/>
      <point x="596" y="562"/>
      <point x="571" y="573"/>
      <point x="559" y="573" type="qcurve" smooth="yes"/>
      <point x="271" y="573" type="line" smooth="yes"/>
      <point x="257" y="573"/>
      <point x="231" y="560"/>
      <point x="211" y="539"/>
      <point x="199" y="513"/>
      <point x="199" y="499" type="qcurve" smooth="yes"/>
      <point x="199" y="470"/>
      <point x="242" y="428"/>
      <point x="271" y="428" type="qcurve" smooth="yes"/>
    </contour>
  </outline>
</glyph>
<glyph name="T" format="1">
  <advance width="768"/>
  <unicode hex="0054"/>
  <outline>
    <contour>
      <point x="739" y="710" type="line"/>
      <point x="739" y="571" type="line"/>
      <point x="455" y="571" type="line"/>
      <point x="455" y="0" type="line"/>
      <point x="313" y="0" type="line"/>
      <point x="313" y="571" type="line"/>
      <point x="29" y="571" type="line"/>
      <point x="29" y="710" type="line"/>
    </contour>
  </outline>
</glyph>
<glyph name="V" format="1">
  <advance width="767"/>
  <unicode hex="0056"/>
  <outline>
    <contour>
      <point x="585" y="711" type="line"/>
      <point x="737" y="711" type="line"/>
      <point x="454" y="0" type="line"/>
      <point x="312" y="0" type="line"/>
      <point x="29" y="711" type="line"/>
      <point x="181" y="711" type="line"/>
      <point x="384" y="208" type="line"/>
    </contour>
  </outline>
</glyph>
<glyph name="X" format="1">
  <advance width="829"/>
  <unicode hex="0058"/>
  <outline>
    <contour>
      <point x="767" y="711" type="line"/>
      <point x="504" y="357" type="line"/>
      <point x="773" y="0" type="line"/>
      <point x="594" y="0" type="line"/>
      <point x="413" y="239" type="line"/>
      <point x="234" y="0" type="line"/>
      <point x="56" y="0" type="line"/>
      <point x="325" y="357" type="line"/>
      <point x="59" y="711" type="line"/>
      <point x="237" y="711" type="line"/>
      <point x="413" y="478" type="line"/>
      <point x="589" y="711" type="line"/>
    </contour>
  </outline>
</glyph>
<glyph name="Z" format="1">
  <advance width="854"/>
  <unicode hex="005A"/>
  <outline>
    <contour>
      <point x="784" y="570" type="line"/>
      <point x="289" y="144" type="line"/>
      <point x="784" y="144" type="line"/>
      <point x="784" y="0" type="line"/>
      <point x="73" y="0" type="line"/>
      <point x="73" y="141" type="line"/>
      <point x="70" y="141" type="line"/>
      <point x="565" y="570" type="line"/>
      <point x="73" y="570" type="line"/>
      <point x="73" y="711" type="line"/>
      <point x="784" y="711" type="line"/>
      <point x="784" y="616" type="line"/>
    </contour>
  </outline>
</glyph>
<glyph name="bracketleft" format="1">
  <advance width="320"/>
  <unicode hex="005B"/>
  <outline>
    <contour>
      <point x="70" y="-62" type="line"/>
      <point x="70" y="750" type="line"/>
      <point x="252" y="750" type="line"/>
      <point x="252" y="700" type="line"/>
      <point x="185" y="700" type="line"/>
      <point x="185" y="-12" type="line"/>
      <point x="252" y="-12" type="line"/>
      <point x="252" y="-62" type="line"/>
    </contour>
  </outline>
</glyph>
<glyph name="backslash" format="1">
  <advance width="710"/>
  <unicode hex="005C"/>
  <outline>
    <contour>
      <point x="70" y="729" type="line"/>
      <point x="222" y="729" type="line"/>
      <point x="644" y="-17" type="line"/>
      <point x="492" y="-17" type="line"/>
    </contour>
  </outline>
</glyph>
<glyph name="bracketright" format="1">
  <advance width="320"/>
  <unicode hex="005D"/>
  <outline>
    <contour>
      <point x="70" y="-62" type="line"/>
      <point x="70" y="-12" type="line"/>
      <point x="137" y="-12" type="line"/>
      <point x="137" y="700" type="line"/>
      <point x="70" y="700" type="line"/>
      <point x="70" y="750" type="line"/>
      <point x="252" y="750" type="line"/>
      <point x="252" y="-62" type="line"/>
    </contour>
  </outline>
</glyph>
<glyph name="asciicircum" format="1">
  <advance width="833"/>
  <unicode hex="005E"/>
  <outline>
    <contour>
      <point x="407" y="897" type="line"/>
      <point x="528" y="778" type="line"/>
      <point x="498" y="748" type="line"/>
      <point x="407" y="837" type="line"/>
      <point x="317" y="748" type="line"/>
      <point x="285" y="778" type="line"/>
    </contour>
    <contour>
      <point x="407" y="897" type="line"/>
      <point x="528" y="778" type="line"/>
      <point x="498" y="748" type="line"/>
      <point x="407" y="837" type="line"/>
      <point x="317" y="748" type="line"/>
      <point x="285" y="778" type="line"/>
    </contour>
  </outline>
</glyph>
<glyph name="grave" format="1">
  <advance width="208"/>
  <unicode hex="0060"/>
  <outline>
    <contour>
      <point x="31" y="824" type="line"/>
      <point x="81" y="874" type="line"/>
      <point x="177" y="780" type="line"/>
      <point x="140" y="745" type="line"/>
    </contour>
  </outline>
</glyph>
<glyph name="b" format="1">
  <advance width="841"/>
  <unicode hex="0062"/>
  <outline>
    <contour>
      <point x="781" y="499" type="qcurve" smooth="yes"/>
      <point x="781" y="457"/>
      <point x="752" y="386"/>
      <point x="726" y="357" type="qcurve"/>
      <point x="752" y="329"/>
      <point x="781" y="256"/>
      <point x="781" y="214" type="qcurve" smooth="yes"/>
      <point x="781" y="169"/>
      <point x="748" y="92"/>
      <point x="690" y="34"/>
      <point x="613" y="1"/>
      <point x="568" y="1" type="qcurve" smooth="yes"/>
      <point x="70" y="1" type="line"/>
      <point x="70" y="712" type="line"/>
      <point x="568" y="712" type="line" smooth="yes"/>
      <point x="613" y="712"/>
      <point x="690" y="679"/>
      <point x="748" y="621"/>
      <point x="781" y="544"/>
    </contour>
    <contour>
      <point x="618" y="164" type="qcurve" smooth="yes"/>
      <point x="638" y="184"/>
      <point x="638" y="214" type="qcurve" smooth="yes"/>
      <point x="638" y="245"/>
      <point x="598" y="285"/>
      <point x="568" y="285" type="qcurve" smooth="yes"/>
      <point x="210" y="285" type="line"/>
      <point x="210" y="144" type="line"/>
      <point x="568" y="144" type="line" smooth="yes"/>
      <point x="598" y="144"/>
    </contour>
    <contour>
      <point x="618" y="448" type="qcurve" smooth="yes"/>
      <point x="638" y="474"/>
      <point x="638" y="499" type="qcurve" smooth="yes"/>
      <point x="638" y="529"/>
      <point x="596" y="572"/>
      <point x="568" y="572" type="qcurve" smooth="yes"/>
      <point x="210" y="572" type="line"/>
      <point x="210" y="428" type="line"/>
      <point x="568" y="428" type="line" smooth="yes"/>
      <point x="598" y="428"/>
    </contour>
  </outline>
</glyph>
<glyph name="c" format="1">
  <advance width="830"/>
  <unicode hex="0063"/>
  <outline>
    <contour>
      <point x="706" y="248" type="line"/>
      <point x="780" y="248" type="line"/>
      <point x="780" y="197"/>
      <point x="740" y="107"/>
      <point x="672" y="40"/>
      <point x="581" y="0"/>
      <point x="530" y="0" type="qcurve" smooth="yes"/>
      <point x="313" y="0" type="line" smooth="yes"/>
      <point x="260" y="0"/>
      <point x="168" y="39"/>
      <point x="99" y="107"/>
      <point x="60" y="198"/>
      <point x="60" y="250" type="qcurve" smooth="yes"/>
      <point x="60" y="467" type="line" smooth="yes"/>
      <point x="60" y="519"/>
      <point x="99" y="610"/>
      <point x="168" y="678"/>
      <point x="260" y="717"/>
      <point x="313" y="717" type="qcurve" smooth="yes"/>
      <point x="530" y="717" type="line" smooth="yes"/>
      <point x="581" y="717"/>
      <point x="672" y="677"/>
      <point x="740" y="610"/>
      <point x="780" y="520"/>
      <point x="780" y="470" type="qcurve"/>
      <point x="635" y="470" type="line"/>
      <point x="635" y="491"/>
      <point x="618" y="529"/>
      <point x="589" y="558"/>
      <point x="551" y="575"/>
      <point x="530" y="575" type="qcurve" smooth="yes"/>
      <point x="313" y="575" type="line" smooth="yes"/>
      <point x="290" y="575"/>
      <point x="251" y="559"/>
      <point x="222" y="530"/>
      <point x="205" y="490"/>
      <point x="205" y="467" type="qcurve" smooth="yes"/>
      <point x="205" y="250" type="line" smooth="yes"/>
      <point x="205" y="203"/>
      <point x="267" y="145"/>
      <point x="313" y="145" type="qcurve" smooth="yes"/>
      <point x="530" y="145" type="line" smooth="yes"/>
      <point x="551" y="145"/>
      <point x="590" y="161"/>
      <point x="618" y="189"/>
      <point x="635" y="226"/>
      <point x="635" y="248" type="qcurve"/>
    </contour>
  </outline>
</glyph>
<glyph name="e" format="1">
  <advance width="851"/>
  <unicode hex="0065"/>
  <outline>
    <contour>
      <point x="210" y="571" type="line"/>
      <point x="210" y="430" type="line"/>
      <point x="507" y="430" type="line"/>
      <point x="507" y="287" type="line"/>
      <point x="210" y="287" type="line"/>
      <point x="210" y="143" type="line"/>
      <point x="781" y="143" type="line"/>
      <point x="781" y="0" type="line"/>
      <point x="70" y="0" type="line"/>
      <point x="70" y="571" type="line"/>
      <point x="70" y="711" type="line"/>
      <point x="781" y="711" type="line"/>
      <point x="781" y="571" type="line"/>
    </contour>
  </outline>
</glyph>
<glyph name="g" format="1">
  <advance width="828"/>
  <unicode hex="0067"/>
  <outline>
    <contour>
      <point x="772" y="392" type="line"/>
      <point x="772" y="248" type="line" smooth="yes"/>
      <point x="772" y="197"/>
      <point x="732" y="107"/>
      <point x="664" y="39"/>
      <point x="573" y="0"/>
      <point x="523" y="0" type="qcurve" smooth="yes"/>
      <point x="307" y="0" type="line" smooth="yes"/>
      <point x="256" y="0"/>
      <point x="166" y="39"/>
      <point x="98" y="107"/>
      <point x="59" y="197"/>
      <point x="59" y="248" type="qcurve" smooth="yes"/>
      <point x="59" y="464" type="line" smooth="yes"/>
      <point x="59" y="514"/>
      <point x="98" y="605"/>
      <point x="166" y="673"/>
      <point x="256" y="713"/>
      <point x="307" y="713" type="qcurve" smooth="yes"/>
      <point x="523" y="713" type="line" smooth="yes"/>
      <point x="573" y="713"/>
      <point x="664" y="673"/>
      <point x="732" y="605"/>
      <point x="772" y="514"/>
      <point x="772" y="464" type="qcurve"/>
      <point x="631" y="464" type="line"/>
      <point x="631" y="486"/>
      <point x="614" y="525"/>
      <point x="584" y="555"/>
      <point x="545" y="572"/>
      <point x="523" y="572" type="qcurve" smooth="yes"/>
      <point x="307" y="572" type="line" smooth="yes"/>
      <point x="286" y="572"/>
      <point x="247" y="555"/>
      <point x="217" y="525"/>
      <point x="200" y="486"/>
      <point x="200" y="464" type="qcurve" smooth="yes"/>
      <point x="200" y="248" type="line" smooth="yes"/>
      <point x="200" y="226"/>
      <point x="217" y="188"/>
      <point x="247" y="159"/>
      <point x="286" y="143"/>
      <point x="307" y="143" type="qcurve" smooth="yes"/>
      <point x="523" y="143" type="line" smooth="yes"/>
      <point x="545" y="143"/>
      <point x="584" y="159"/>
      <point x="614" y="188"/>
      <point x="631" y="226"/>
      <point x="631" y="248" type="qcurve"/>
      <point x="415" y="248" type="line"/>
      <point x="415" y="392" type="line"/>
    </contour>
  </outline>
</glyph>
<glyph name="h" format="1">
  <advance width="852"/>
  <unicode hex="0068"/>
  <outline>
    <contour>
      <point x="782" y="711" type="line"/>
      <point x="782" y="0" type="line"/>
      <point x="640" y="0" type="line"/>
      <point x="640" y="286" type="line"/>
      <point x="214" y="286" type="line"/>
      <point x="214" y="0" type="line"/>
      <point x="70" y="0" type="line"/>
      <point x="70" y="711" type="line"/>
      <point x="214" y="711" type="line"/>
      <point x="214" y="429" type="line"/>
      <point x="640" y="429" type="line"/>
      <point x="640" y="711" type="line"/>
    </contour>
  </outline>
</glyph>
<glyph name="k" format="1">
  <advance width="830"/>
  <unicode hex="006B"/>
  <outline>
    <contour>
      <point x="401" y="473" type="line"/>
      <point x="781" y="0" type="line"/>
      <point x="598" y="0" type="line"/>
      <point x="280" y="398" type="line"/>
      <point x="213" y="355" type="line"/>
      <point x="213" y="0" type="line"/>
      <point x="70" y="0" type="line"/>
      <point x="70" y="710" type="line"/>
      <point x="213" y="710" type="line"/>
      <point x="213" y="523" type="line"/>
      <point x="510" y="710" type="line"/>
      <point x="780" y="710" type="line"/>
    </contour>
  </outline>
</glyph>
<glyph name="l" format="1">
  <advance width="789"/>
  <unicode hex="006C"/>
  <outline>
    <contour>
      <point x="782" y="0" type="line"/>
      <point x="70" y="0" type="line"/>
      <point x="70" y="712" type="line"/>
      <point x="211" y="712" type="line"/>
      <point x="211" y="144" type="line"/>
      <point x="782" y="144" type="line"/>
    </contour>
  </outline>
</glyph>
<glyph name="p" format="1">
  <advance width="800"/>
  <unicode hex="0070"/>
  <outline>
    <contour>
      <point x="708" y="638" type="qcurve" smooth="yes"/>
      <point x="742" y="603"/>
      <point x="780" y="513"/>
      <point x="780" y="461" type="qcurve" smooth="yes"/>
      <point x="780" y="410"/>
      <point x="741" y="320"/>
      <point x="674" y="252"/>
      <point x="583" y="213"/>
      <point x="531" y="213" type="qcurve" smooth="yes"/>
      <point x="211" y="213" type="line"/>
      <point x="211" y="0" type="line"/>
      <point x="70" y="0" type="line"/>
      <point x="70" y="710" type="line"/>
      <point x="531" y="710" type="line" smooth="yes"/>
      <point x="583" y="710"/>
      <point x="673" y="672"/>
    </contour>
    <contour>
      <point x="607" y="386" type="qcurve" smooth="yes"/>
      <point x="637" y="416"/>
      <point x="637" y="461" type="qcurve" smooth="yes"/>
      <point x="637" y="485"/>
      <point x="620" y="524"/>
      <point x="590" y="553"/>
      <point x="552" y="569"/>
      <point x="531" y="569" type="qcurve" smooth="yes"/>
      <point x="211" y="569" type="line"/>
      <point x="211" y="356" type="line"/>
      <point x="531" y="356" type="line" smooth="yes"/>
      <point x="577" y="356"/>
    </contour>
  </outline>
</glyph>
<glyph name="q" format="1">
  <advance width="833"/>
  <unicode hex="0071"/>
  <outline>
    <contour>
      <point x="771" y="249" type="line" smooth="yes"/>
      <point x="771" y="206"/>
      <point x="742" y="125"/>
      <point x="716" y="95" type="qcurve"/>
      <point x="771" y="0" type="line"/>
      <point x="609" y="0" type="line"/>
      <point x="600" y="13" type="line"/>
      <point x="581" y="8"/>
      <point x="542" y="0"/>
      <point x="522" y="0" type="qcurve" smooth="yes"/>
      <point x="309" y="0" type="line" smooth="yes"/>
      <point x="257" y="0"/>
      <point x="166" y="39"/>
      <point x="99" y="106"/>
      <point x="60" y="197"/>
      <point x="60" y="249" type="qcurve" smooth="yes"/>
      <point x="60" y="462" type="line" smooth="yes"/>
      <point x="60" y="515"/>
      <point x="100" y="607"/>
      <point x="168" y="675"/>
      <point x="259" y="714"/>
      <point x="309" y="714" type="qcurve" smooth="yes"/>
      <point x="522" y="714" type="line" smooth="yes"/>
      <point x="571" y="714"/>
      <point x="661" y="676"/>
      <point x="730" y="609"/>
      <point x="771" y="516"/>
      <point x="771" y="462" type="qcurve" smooth="yes"/>
    </contour>
    <contour>
      <point x="629" y="249" type="line"/>
      <point x="629" y="462" type="line" smooth="yes"/>
      <point x="629" y="487"/>
      <point x="611" y="527"/>
      <point x="582" y="555"/>
      <point x="543" y="570"/>
      <point x="522" y="570" type="qcurve" smooth="yes"/>
      <point x="309" y="570" type="line" smooth="yes"/>
      <point x="287" y="570"/>
      <point x="248" y="554"/>
      <point x="218" y="525"/>
      <point x="201" y="486"/>
      <point x="201" y="462" type="qcurve" smooth="yes"/>
      <point x="201" y="249" type="line" smooth="yes"/>
      <point x="201" y="228"/>
      <point x="216" y="190"/>
      <point x="245" y="160"/>
      <point x="285" y="142"/>
      <point x="309" y="142" type="qcurve" smooth="yes"/>
      <point x="525" y="142" type="line"/>
      <point x="463" y="249" type="line"/>
    </contour>
  </outline>
</glyph>
<glyph name="r" format="1">
  <advance width="843"/>
  <unicode hex="0072"/>
  <outline>
    <contour>
      <point x="70" y="712" type="line"/>
      <point x="568" y="712" type="line"/>
      <point x="613" y="706"/>
      <point x="692" y="664"/>
      <point x="749" y="599"/>
      <point x="782" y="519"/>
      <point x="782" y="476" type="qcurve" smooth="yes"/>
      <point x="782" y="466" type="line"/>
      <point x="782" y="456" type="line" smooth="yes"/>
      <point x="782" y="427"/>
      <point x="766" y="368"/>
      <point x="736" y="315"/>
      <point x="695" y="271"/>
      <point x="671" y="256" type="qcurve"/>
      <point x="785" y="0" type="line"/>
      <point x="628" y="0" type="line"/>
      <point x="533" y="216" type="line"/>
      <point x="214" y="216" type="line"/>
      <point x="214" y="0" type="line"/>
      <point x="70" y="0" type="line"/>
    </contour>
    <contour>
      <point x="214" y="360" type="line"/>
      <point x="533" y="360" type="line" smooth="yes"/>
      <point x="555" y="360"/>
      <point x="594" y="376"/>
      <point x="624" y="405"/>
      <point x="641" y="443"/>
      <point x="641" y="466" type="qcurve" smooth="yes"/>
      <point x="641" y="487"/>
      <point x="623" y="526"/>
      <point x="593" y="556"/>
      <point x="554" y="574"/>
      <point x="533" y="574" type="qcurve" smooth="yes"/>
      <point x="214" y="574" type="line"/>
    </contour>
  </outline>
</glyph>
<glyph name="v" format="1">
  <advance width="767"/>
  <unicode hex="0076"/>
  <outline>
    <contour>
      <point x="738" y="711" type="line"/>
      <point x="455" y="0" type="line"/>
      <point x="313" y="0" type="line"/>
      <point x="30" y="711" type="line"/>
      <point x="182" y="711" type="line"/>
      <point x="385" y="208" type="line"/>
      <point x="586" y="711" type="line"/>
    </contour>
  </outline>
</glyph>
<glyph name="w" format="1">
  <advance width="811"/>
  <unicode hex="0077"/>
  <outline>
    <contour>
      <point x="615" y="0" type="line"/>
      <point x="470" y="0" type="line"/>
      <point x="406" y="126" type="line"/>
      <point x="326" y="0" type="line"/>
      <point x="182" y="0" type="line"/>
      <point x="49" y="712" type="line"/>
      <point x="195" y="712" type="line"/>
      <point x="293" y="214" type="line"/>
      <point x="406" y="410" type="line"/>
      <point x="520" y="214" type="line"/>
      <point x="618" y="712" type="line"/>
      <point x="764" y="712" type="line"/>
    </contour>
  </outline>
</glyph>
<glyph name="y" format="1">
  <advance width="756"/>
  <unicode hex="0079"/>
  <outline>
    <contour>
      <point x="732" y="712" type="line"/>
      <point x="448" y="337" type="line"/>
      <point x="448" y="0" type="line"/>
      <point x="306" y="0" type="line"/>
      <point x="306" y="337" type="line"/>
      <point x="24" y="712" type="line"/>
      <point x="203" y="712" type="line"/>
      <point x="380" y="480" type="line"/>
      <point x="552" y="712" type="line"/>
    </contour>
  </outline>
</glyph>
<glyph name="z" format="1">
  <advance width="853"/>
  <unicode hex="007A"/>
  <outline>
    <contour>
      <point x="288" y="144" type="line"/>
      <point x="783" y="144" type="line"/>
      <point x="783" y="0" type="line"/>
      <point x="72" y="0" type="line"/>
      <point x="72" y="141" type="line"/>
      <point x="69" y="141" type="line"/>
      <point x="564" y="570" type="line"/>
      <point x="72" y="570" type="line"/>
      <point x="72" y="711" type="line"/>
      <point x="783" y="711" type="line"/>
      <point x="783" y="570" type="line"/>
    </contour>
  </outline>
</glyph>
<glyph name="braceleft" format="1">
  <advance width="370"/>
  <unicode hex="007B"/>
  <outline>
    <contour>
      <point x="158" y="326" type="qcurve"/>
      <point x="162" y="323"/>
      <point x="187" y="300"/>
      <point x="212" y="260"/>
      <point x="232" y="200"/>
      <point x="232" y="158" type="qcurve" smooth="yes"/>
      <point x="232" y="-43" type="line" smooth="yes"/>
      <point x="232" y="-55"/>
      <point x="242" y="-78"/>
      <point x="260" y="-98"/>
      <point x="284" y="-110"/>
      <point x="299" y="-110" type="qcurve"/>
      <point x="299" y="-202" type="line"/>
      <point x="266" y="-202"/>
      <point x="209" y="-176"/>
      <point x="167" y="-132"/>
      <point x="142" y="-75"/>
      <point x="142" y="-43" type="qcurve" smooth="yes"/>
      <point x="142" y="142" type="line" smooth="yes"/>
      <point x="142" y="199"/>
      <point x="106" y="273"/>
      <point x="69" y="289" type="qcurve"/>
      <point x="69" y="363" type="line"/>
      <point x="106" y="379"/>
      <point x="142" y="453"/>
      <point x="142" y="510" type="qcurve" smooth="yes"/>
      <point x="142" y="695" type="line" smooth="yes"/>
      <point x="142" y="726"/>
      <point x="167" y="784"/>
      <point x="209" y="828"/>
      <point x="266" y="854"/>
      <point x="299" y="854" type="qcurve"/>
      <point x="299" y="762" type="line"/>
      <point x="284" y="762"/>
      <point x="260" y="749"/>
      <point x="242" y="730"/>
      <point x="232" y="706"/>
      <point x="232" y="695" type="qcurve" smooth="yes"/>
      <point x="232" y="494" type="line" smooth="yes"/>
      <point x="232" y="452"/>
      <point x="212" y="392"/>
      <point x="187" y="351"/>
      <point x="162" y="329"/>
    </contour>
  </outline>
</glyph>
<glyph name="bar" format="1">
  <advance width="852"/>
  <unicode hex="007C"/>
  <outline>
    <contour>
      <point x="366" y="0" type="line"/>
      <point x="366" y="750" type="line"/>
      <point x="481" y="750" type="line"/>
      <point x="481" y="0" type="line"/>
    </contour>
  </outline>
</glyph>
<glyph name="braceright" format="1">
  <advance width="370"/>
  <unicode hex="007D"/>
  <outline>
    <contour>
      <point x="210" y="326" type="qcurve"/>
      <point x="205" y="329"/>
      <point x="181" y="351"/>
      <point x="155" y="392"/>
      <point x="136" y="452"/>
      <point x="136" y="494" type="qcurve" smooth="yes"/>
      <point x="136" y="695" type="line" smooth="yes"/>
      <point x="136" y="706"/>
      <point x="126" y="730"/>
      <point x="108" y="749"/>
      <point x="84" y="762"/>
      <point x="69" y="762" type="qcurve"/>
      <point x="69" y="854" type="line"/>
      <point x="102" y="854"/>
      <point x="159" y="828"/>
      <point x="201" y="784"/>
      <point x="226" y="726"/>
      <point x="226" y="695" type="qcurve" smooth="yes"/>
      <point x="226" y="510" type="line" smooth="yes"/>
      <point x="226" y="453"/>
      <point x="262" y="379"/>
      <point x="299" y="363" type="qcurve"/>
      <point x="299" y="289" type="line"/>
      <point x="262" y="273"/>
      <point x="226" y="199"/>
      <point x="226" y="142" type="qcurve" smooth="yes"/>
      <point x="226" y="-43" type="line" smooth="yes"/>
      <point x="226" y="-75"/>
      <point x="201" y="-132"/>
      <point x="159" y="-176"/>
      <point x="102" y="-202"/>
      <point x="69" y="-202" type="qcurve"/>
      <point x="69" y="-110" type="line"/>
      <point x="84" y="-110"/>
      <point x="108" y="-98"/>
      <point x="126" y="-78"/>
      <point x="136" y="-55"/>
      <point x="136" y="-43" type="qcurve" smooth="yes"/>
      <point x="136" y="158" type="line" smooth="yes"/>
      <point x="136" y="200"/>
      <point x="155" y="260"/>
      <point x="181" y="301"/>
      <point x="205" y="323"/>
    </contour>
  </outline>
</glyph>
<glyph name="dieresis" format="1">
  <advance width="830"/>
  <unicode hex="00A8"/>
  <outline>
    <contour>
      <point x="205" y="746" type="line"/>
      <point x="205" y="796" type="line"/>
      <point x="346" y="796" type="line"/>
      <point x="346" y="746" type="line"/>
    </contour>
    <contour>
      <point x="447" y="746" type="line"/>
      <point x="447" y="796" type="line"/>
      <point x="588" y="796" type="line"/>
      <point x="588" y="746" type="line"/>
    </contour>
  </outline>
</glyph>
<glyph name="copyright" format="1">
  <advance width="518"/>
  <unicode hex="00A9"/>
  <outline>
    <contour>
      <point x="393" y="657" type="qcurve" smooth="yes"/>
      <point x="419" y="631"/>
      <point x="448" y="563"/>
      <point x="448" y="523" type="qcurve" smooth="yes"/>
      <point x="448" y="484"/>
      <point x="418" y="415"/>
      <point x="367" y="364"/>
      <point x="298" y="334"/>
      <point x="259" y="334" type="qcurve" smooth="yes"/>
      <point x="219" y="334"/>
      <point x="150" y="364"/>
      <point x="99" y="415"/>
      <point x="69" y="484"/>
      <point x="69" y="523" type="qcurve" smooth="yes"/>
      <point x="69" y="562"/>
      <point x="99" y="632"/>
      <point x="150" y="683"/>
      <point x="220" y="713"/>
      <point x="259" y="713" type="qcurve" smooth="yes"/>
      <point x="298" y="713"/>
      <point x="367" y="683"/>
    </contour>
    <contour>
      <point x="367" y="415" type="qcurve" smooth="yes"/>
      <point x="411" y="457"/>
      <point x="411" y="523" type="qcurve" smooth="yes"/>
      <point x="411" y="555"/>
      <point x="388" y="611"/>
      <point x="347" y="652"/>
      <point x="291" y="676"/>
      <point x="259" y="676" type="qcurve" smooth="yes"/>
      <point x="226" y="676"/>
      <point x="170" y="652"/>
      <point x="129" y="611"/>
      <point x="106" y="555"/>
      <point x="106" y="523" type="qcurve" smooth="yes"/>
      <point x="106" y="491"/>
      <point x="129" y="435"/>
      <point x="170" y="394"/>
      <point x="226" y="370"/>
      <point x="259" y="370" type="qcurve" smooth="yes"/>
      <point x="291" y="370"/>
      <point x="347" y="394"/>
    </contour>
    <contour>
      <point x="211" y="571" type="qcurve" smooth="yes"/>
      <point x="204" y="564"/>
      <point x="204" y="551" type="qcurve" smooth="yes"/>
      <point x="204" y="495" type="line" smooth="yes"/>
      <point x="204" y="484"/>
      <point x="217" y="469"/>
      <point x="231" y="469" type="qcurve" smooth="yes"/>
      <point x="287" y="469" type="line" smooth="yes"/>
      <point x="298" y="469"/>
      <point x="313" y="483"/>
      <point x="313" y="495" type="qcurve"/>
      <point x="351" y="495" type="line"/>
      <point x="351" y="469"/>
      <point x="313" y="432"/>
      <point x="287" y="432" type="qcurve" smooth="yes"/>
      <point x="231" y="432" type="line" smooth="yes"/>
      <point x="203" y="432"/>
      <point x="166" y="469"/>
      <point x="166" y="495" type="qcurve" smooth="yes"/>
      <point x="166" y="551" type="line" smooth="yes"/>
      <point x="166" y="580"/>
      <point x="206" y="615"/>
      <point x="231" y="615" type="qcurve" smooth="yes"/>
      <point x="287" y="615" type="line" smooth="yes"/>
      <point x="312" y="615"/>
      <point x="351" y="579"/>
      <point x="351" y="552" type="qcurve"/>
      <point x="313" y="552" type="line"/>
      <point x="313" y="563"/>
      <point x="298" y="578"/>
      <point x="287" y="578" type="qcurve" smooth="yes"/>
      <point x="231" y="578" type="line" smooth="yes"/>
      <point x="218" y="578"/>
    </contour>
  </outline>
</glyph>
<glyph name="registered" format="1">
  <advance width="516"/>
  <unicode hex="00AE"/>
  <outline>
    <contour>
      <point x="391" y="656" type="qcurve" smooth="yes"/>
      <point x="417" y="630"/>
      <point x="446" y="562"/>
      <point x="446" y="523" type="qcurve" smooth="yes"/>
      <point x="446" y="484"/>
      <point x="416" y="416"/>
      <point x="365" y="365"/>
      <point x="297" y="335"/>
      <point x="258" y="335" type="qcurve" smooth="yes"/>
      <point x="219" y="335"/>
      <point x="150" y="365"/>
      <point x="99" y="416"/>
      <point x="70" y="484"/>
      <point x="70" y="523" type="qcurve" smooth="yes"/>
      <point x="70" y="562"/>
      <point x="99" y="630"/>
      <point x="150" y="681"/>
      <point x="219" y="711"/>
      <point x="258" y="711" type="qcurve" smooth="yes"/>
      <point x="297" y="711"/>
      <point x="365" y="682"/>
    </contour>
    <contour>
      <point x="366" y="416" type="qcurve" smooth="yes"/>
      <point x="386" y="437"/>
      <point x="410" y="491"/>
      <point x="410" y="523" type="qcurve" smooth="yes"/>
      <point x="410" y="555"/>
      <point x="386" y="610"/>
      <point x="345" y="651"/>
      <point x="290" y="675"/>
      <point x="258" y="675" type="qcurve" smooth="yes"/>
      <point x="226" y="675"/>
      <point x="171" y="651"/>
      <point x="130" y="610"/>
      <point x="106" y="555"/>
      <point x="106" y="523" type="qcurve" smooth="yes"/>
      <point x="106" y="491"/>
      <point x="130" y="436"/>
      <point x="171" y="395"/>
      <point x="226" y="371"/>
      <point x="258" y="371" type="qcurve" smooth="yes"/>
      <point x="290" y="371"/>
      <point x="345" y="395"/>
    </contour>
    <contour>
      <point x="330" y="506" type="qcurve" smooth="yes"/>
      <point x="320" y="498" type="line"/>
      <point x="348" y="433" type="line"/>
      <point x="309" y="433" type="line"/>
      <point x="285" y="488" type="line"/>
      <point x="203" y="488" type="line"/>
      <point x="203" y="433" type="line"/>
      <point x="168" y="433" type="line"/>
      <point x="168" y="614" type="line"/>
      <point x="294" y="614" type="line"/>
      <point x="318" y="609"/>
      <point x="348" y="576"/>
      <point x="348" y="551" type="qcurve" smooth="yes"/>
      <point x="348" y="525"/>
    </contour>
    <contour>
      <point x="304" y="532" type="qcurve" smooth="yes"/>
      <point x="312" y="540"/>
      <point x="312" y="551" type="qcurve" smooth="yes"/>
      <point x="312" y="562"/>
      <point x="296" y="578"/>
      <point x="285" y="578" type="qcurve" smooth="yes"/>
      <point x="203" y="578" type="line"/>
      <point x="203" y="524" type="line"/>
      <point x="285" y="524" type="line" smooth="yes"/>
      <point x="296" y="524"/>
    </contour>
  </outline>
</glyph>
<glyph name="degree" format="1">
  <advance width="403"/>
  <unicode hex="00B0"/>
  <outline>
    <contour>
      <point x="353" y="575" type="qcurve" smooth="yes"/>
      <point x="353" y="544"/>
      <point x="329" y="489"/>
      <point x="288" y="448"/>
      <point x="232" y="424"/>
      <point x="201" y="424" type="qcurve" smooth="yes"/>
      <point x="170" y="424"/>
      <point x="115" y="448"/>
      <point x="74" y="489"/>
      <point x="50" y="544"/>
      <point x="50" y="575" type="qcurve" smooth="yes"/>
      <point x="50" y="606"/>
      <point x="74" y="662"/>
      <point x="115" y="703"/>
      <point x="170" y="727"/>
      <point x="201" y="727" type="qcurve" smooth="yes"/>
      <point x="232" y="727"/>
      <point x="288" y="703"/>
      <point x="329" y="662"/>
      <point x="353" y="606"/>
    </contour>
    <contour>
      <point x="288" y="575" type="qcurve" smooth="yes"/>
      <point x="288" y="611"/>
      <point x="237" y="662"/>
      <point x="201" y="662" type="qcurve" smooth="yes"/>
      <point x="183" y="662"/>
      <point x="152" y="648"/>
      <point x="129" y="625"/>
      <point x="115" y="593"/>
      <point x="115" y="575" type="qcurve" smooth="yes"/>
      <point x="115" y="557"/>
      <point x="129" y="526"/>
      <point x="152" y="503"/>
      <point x="183" y="489"/>
      <point x="201" y="489" type="qcurve" smooth="yes"/>
      <point x="219" y="489"/>
      <point x="251" y="503"/>
      <point x="274" y="526"/>
      <point x="288" y="557"/>
    </contour>
  </outline>
</glyph>
<glyph name="acute" format="1">
  <advance width="790"/>
  <unicode hex="00B4"/>
  <outline>
    <contour>
      <point x="404" y="743" type="line"/>
      <point x="370" y="780" type="line"/>
      <point x="464" y="877" type="line"/>
      <point x="514" y="827" type="line"/>
    </contour>
  </outline>
</glyph>
<glyph name="guillemotright" format="1">
  <advance width="613"/>
  <unicode hex="00BB"/>
  <outline>
    <contour>
      <point x="337" y="560" type="line"/>
      <point x="587" y="310" type="line"/>
      <point x="337" y="60" type="line"/>
      <point x="337" y="185" type="line"/>
      <point x="462" y="310" type="line"/>
      <point x="337" y="435" type="line"/>
    </contour>
    <contour>
      <point x="71" y="560" type="line"/>
      <point x="321" y="310" type="line"/>
      <point x="71" y="60" type="line"/>
      <point x="71" y="185" type="line"/>
      <point x="196" y="310" type="line"/>
      <point x="71" y="435" type="line"/>
    </contour>
  </outline>
</glyph>
<glyph name="Atilde" format="1">
  <advance width="777"/>
  <unicode hex="00C3"/>
  <outline>
    <contour>
      <point x="561" y="831" type="line"/>
      <point x="546" y="800"/>
      <point x="498" y="750"/>
      <point x="461" y="750" type="qcurve" smooth="yes"/>
      <point x="437" y="750"/>
      <point x="397" y="767"/>
      <point x="364" y="788"/>
      <point x="335" y="805"/>
      <point x="323" y="805" type="qcurve" smooth="yes"/>
      <point x="304" y="805"/>
      <point x="282" y="783"/>
      <point x="274" y="769" type="qcurve"/>
      <point x="207" y="805" type="line"/>
      <point x="216" y="820"/>
      <point x="237" y="848"/>
      <point x="262" y="870"/>
      <point x="294" y="883"/>
      <point x="313" y="883" type="qcurve" smooth="yes"/>
      <point x="334" y="883"/>
      <point x="372" y="865"/>
      <point x="406" y="844"/>
      <point x="437" y="827"/>
      <point x="452" y="827" type="qcurve" smooth="yes"/>
      <point x="468" y="827"/>
      <point x="488" y="851"/>
      <point x="494" y="864" type="qcurve"/>
    </contour>
    <contour>
      <point x="465" y="713" type="line"/>
      <point x="746" y="0" type="line"/>
      <point x="592" y="0" type="line"/>
      <point x="550" y="105" type="line"/>
      <point x="228" y="105" type="line"/>
      <point x="185" y="0" type="line"/>
      <point x="31" y="0" type="line"/>
      <point x="310" y="713" type="line"/>
    </contour>
    <contour>
      <point x="494" y="250" type="line"/>
      <point x="389" y="519" type="line"/>
      <point x="283" y="250" type="line"/>
    </contour>
  </outline>
</glyph>
<glyph name="Adieresis" format="1">
  <advance width="769"/>
  <unicode hex="00C4"/>
  <outline>
    <contour>
      <point x="311" y="749" type="line"/>
      <point x="168" y="749" type="line"/>
      <point x="168" y="797" type="line"/>
      <point x="311" y="797" type="line"/>
    </contour>
    <contour>
      <point x="597" y="749" type="line"/>
      <point x="454" y="749" type="line"/>
      <point x="454" y="797" type="line"/>
      <point x="597" y="797" type="line"/>
    </contour>
    <contour>
      <point x="307" y="713" type="line"/>
      <point x="462" y="713" type="line"/>
      <point x="743" y="0" type="line"/>
      <point x="589" y="0" type="line"/>
      <point x="547" y="105" type="line"/>
      <point x="225" y="105" type="line"/>
      <point x="182" y="0" type="line"/>
      <point x="28" y="0" type="line"/>
    </contour>
    <contour>
      <point x="280" y="250" type="line"/>
      <point x="491" y="250" type="line"/>
      <point x="386" y="519" type="line"/>
    </contour>
  </outline>
</glyph>
<glyph name="Aring" format="1">
  <advance width="777"/>
  <unicode hex="00C5"/>
  <outline>
    <contour>
      <point x="282" y="845" type="qcurve" smooth="yes"/>
      <point x="282" y="866"/>
      <point x="298" y="904"/>
      <point x="326" y="932"/>
      <point x="364" y="948"/>
      <point x="385" y="948" type="qcurve" smooth="yes"/>
      <point x="406" y="948"/>
      <point x="444" y="932"/>
      <point x="472" y="904"/>
      <point x="488" y="866"/>
      <point x="488" y="845" type="qcurve" smooth="yes"/>
      <point x="488" y="824"/>
      <point x="472" y="786"/>
      <point x="444" y="758"/>
      <point x="406" y="742"/>
      <point x="385" y="742" type="qcurve" smooth="yes"/>
      <point x="364" y="742"/>
      <point x="326" y="758"/>
      <point x="298" y="786"/>
      <point x="282" y="824"/>
    </contour>
    <contour>
      <point x="322" y="845" type="qcurve" smooth="yes"/>
      <point x="322" y="819"/>
      <point x="359" y="782"/>
      <point x="385" y="782" type="qcurve" smooth="yes"/>
      <point x="411" y="782"/>
      <point x="448" y="819"/>
      <point x="448" y="845" type="qcurve" smooth="yes"/>
      <point x="448" y="871"/>
      <point x="411" y="908"/>
      <point x="385" y="908" type="qcurve" smooth="yes"/>
      <point x="359" y="908"/>
      <point x="322" y="871"/>
    </contour>
    <contour>
      <point x="465" y="713" type="line"/>
      <point x="746" y="0" type="line"/>
      <point x="592" y="0" type="line"/>
      <point x="550" y="105" type="line"/>
      <point x="228" y="105" type="line"/>
      <point x="185" y="0" type="line"/>
      <point x="31" y="0" type="line"/>
      <point x="310" y="713" type="line"/>
    </contour>
    <contour>
      <point x="494" y="250" type="line"/>
      <point x="389" y="519" type="line"/>
      <point x="283" y="250" type="line"/>
    </contour>
  </outline>
</glyph>
<glyph name="Ccedilla" format="1">
  <advance width="830"/>
  <unicode hex="00C7"/>
  <outline>
    <contour>
      <point x="452" y="-1" type="line"/>
      <point x="452" y="-135" type="line"/>
      <point x="381" y="-135" type="line"/>
      <point x="402" y="-1" type="line"/>
      <point x="311" y="-1" type="line" smooth="yes"/>
      <point x="260" y="-1"/>
      <point x="169" y="38"/>
      <point x="100" y="106"/>
      <point x="60" y="197"/>
      <point x="60" y="249" type="qcurve" smooth="yes"/>
      <point x="60" y="463" type="line" smooth="yes"/>
      <point x="60" y="515"/>
      <point x="99" y="606"/>
      <point x="167" y="673"/>
      <point x="259" y="712"/>
      <point x="311" y="712" type="qcurve" smooth="yes"/>
      <point x="526" y="712" type="line" smooth="yes"/>
      <point x="574" y="712"/>
      <point x="664" y="674"/>
      <point x="733" y="608"/>
      <point x="774" y="518"/>
      <point x="774" y="466" type="qcurve"/>
      <point x="629" y="466" type="line"/>
      <point x="629" y="486"/>
      <point x="612" y="524"/>
      <point x="583" y="554"/>
      <point x="546" y="573"/>
      <point x="526" y="573" type="qcurve" smooth="yes"/>
      <point x="311" y="573" type="line" smooth="yes"/>
      <point x="287" y="573"/>
      <point x="248" y="554"/>
      <point x="220" y="524"/>
      <point x="205" y="484"/>
      <point x="205" y="463" type="qcurve" smooth="yes"/>
      <point x="205" y="249" type="line" smooth="yes"/>
      <point x="205" y="228"/>
      <point x="220" y="190"/>
      <point x="247" y="161"/>
      <point x="286" y="144"/>
      <point x="311" y="144" type="qcurve" smooth="yes"/>
      <point x="526" y="144" type="line" smooth="yes"/>
      <point x="547" y="144"/>
      <point x="585" y="160"/>
      <point x="613" y="188"/>
      <point x="629" y="225"/>
      <point x="629" y="246" type="qcurve"/>
      <point x="774" y="246" type="line"/>
      <point x="774" y="194"/>
      <point x="732" y="104"/>
      <point x="662" y="37"/>
      <point x="573" y="-1"/>
      <point x="526" y="-1" type="qcurve" smooth="yes"/>
    </contour>
    <contour>
      <point x="452" y="-1" type="line"/>
      <point x="452" y="-135" type="line"/>
      <point x="381" y="-135" type="line"/>
      <point x="402" y="-1" type="line"/>
      <point x="311" y="-1" type="line" smooth="yes"/>
      <point x="260" y="-1"/>
      <point x="169" y="38"/>
      <point x="100" y="106"/>
      <point x="60" y="197"/>
      <point x="60" y="249" type="qcurve" smooth="yes"/>
      <point x="60" y="463" type="line" smooth="yes"/>
      <point x="60" y="515"/>
      <point x="99" y="606"/>
      <point x="167" y="673"/>
      <point x="259" y="712"/>
      <point x="311" y="712" type="qcurve" smooth="yes"/>
      <point x="526" y="712" type="line" smooth="yes"/>
      <point x="574" y="712"/>
      <point x="664" y="674"/>
      <point x="733" y="608"/>
      <point x="774" y="518"/>
      <point x="774" y="466" type="qcurve"/>
      <point x="629" y="466" type="line"/>
      <point x="629" y="486"/>
      <point x="612" y="524"/>
      <point x="583" y="554"/>
      <point x="546" y="573"/>
      <point x="526" y="573" type="qcurve" smooth="yes"/>
      <point x="311" y="573" type="line" smooth="yes"/>
      <point x="287" y="573"/>
      <point x="248" y="554"/>
      <point x="220" y="524"/>
      <point x="205" y="484"/>
      <point x="205" y="463" type="qcurve" smooth="yes"/>
      <point x="205" y="249" type="line" smooth="yes"/>
      <point x="205" y="228"/>
      <point x="220" y="190"/>
      <point x="247" y="161"/>
      <point x="286" y="144"/>
      <point x="311" y="144" type="qcurve" smooth="yes"/>
      <point x="526" y="144" type="line" smooth="yes"/>
      <point x="547" y="144"/>
      <point x="585" y="160"/>
      <point x="613" y="188"/>
      <point x="629" y="225"/>
      <point x="629" y="246" type="qcurve"/>
      <point x="774" y="246" type="line"/>
      <point x="774" y="194"/>
      <point x="732" y="104"/>
      <point x="662" y="37"/>
      <point x="573" y="-1"/>
      <point x="526" y="-1" type="qcurve" smooth="yes"/>
    </contour>
  </outline>
</glyph>
<glyph name="Egrave" format="1">
  <advance width="788"/>
  <unicode hex="00C8"/>
  <outline>
    <contour>
      <point x="407" y="745" type="line"/>
      <point x="298" y="826" type="line"/>
      <point x="347" y="876" type="line"/>
      <point x="443" y="780" type="line"/>
    </contour>
    <contour>
      <point x="760" y="568" type="line"/>
      <point x="195" y="568" type="line"/>
      <point x="195" y="427" type="line"/>
      <point x="488" y="427" type="line"/>
      <point x="488" y="288" type="line"/>
      <point x="195" y="288" type="line"/>
      <point x="195" y="142" type="line"/>
      <point x="760" y="142" type="line"/>
      <point x="760" y="0" type="line"/>
      <point x="53" y="0" type="line"/>
      <point x="53" y="568" type="line"/>
      <point x="53" y="711" type="line"/>
      <point x="760" y="711" type="line"/>
    </contour>
  </outline>
</glyph>
<glyph name="Eacute" format="1">
  <advance width="791"/>
  <unicode hex="00C9"/>
  <outline>
    <contour>
      <point x="756" y="567" type="line"/>
      <point x="192" y="567" type="line"/>
      <point x="192" y="427" type="line"/>
      <point x="483" y="427" type="line"/>
      <point x="483" y="288" type="line"/>
      <point x="192" y="288" type="line"/>
      <point x="192" y="144" type="line"/>
      <point x="756" y="144" type="line"/>
      <point x="756" y="0" type="line"/>
      <point x="49" y="0" type="line"/>
      <point x="49" y="567" type="line"/>
      <point x="49" y="711" type="line"/>
      <point x="756" y="711" type="line"/>
    </contour>
    <contour>
      <point x="369" y="780" type="line"/>
      <point x="463" y="877" type="line"/>
      <point x="513" y="827" type="line"/>
      <point x="403" y="743" type="line"/>
    </contour>
  </outline>
</glyph>
<glyph name="Edieresis" format="1">
  <advance width="851"/>
  <unicode hex="00CB"/>
  <outline>
    <contour>
      <point x="204" y="749" type="line"/>
      <point x="204" y="797" type="line"/>
      <point x="347" y="797" type="line"/>
      <point x="347" y="749" type="line"/>
    </contour>
    <contour>
      <point x="490" y="749" type="line"/>
      <point x="490" y="797" type="line"/>
      <point x="633" y="797" type="line"/>
      <point x="633" y="749" type="line"/>
    </contour>
    <contour>
      <point x="781" y="571" type="line"/>
      <point x="210" y="571" type="line"/>
      <point x="210" y="430" type="line"/>
      <point x="507" y="430" type="line"/>
      <point x="507" y="287" type="line"/>
      <point x="210" y="287" type="line"/>
      <point x="210" y="143" type="line"/>
      <point x="781" y="143" type="line"/>
      <point x="781" y="0" type="line"/>
      <point x="70" y="0" type="line"/>
      <point x="70" y="571" type="line"/>
      <point x="70" y="711" type="line"/>
      <point x="781" y="711" type="line"/>
    </contour>
  </outline>
</glyph>
<glyph name="Iacute" format="1">
  <advance width="260"/>
  <unicode hex="00CD"/>
  <outline>
    <contour>
      <point x="54" y="712" type="line"/>
      <point x="197" y="712" type="line"/>
      <point x="197" y="0" type="line"/>
      <point x="54" y="0" type="line"/>
    </contour>
    <contour>
      <point x="88" y="780" type="line"/>
      <point x="186" y="876" type="line"/>
      <point x="234" y="829" type="line"/>
      <point x="126" y="746" type="line"/>
    </contour>
  </outline>
</glyph>
<glyph name="Idieresis" format="1">
  <advance width="279"/>
  <unicode hex="00CF"/>
  <outline>
    <contour>
      <point x="277" y="711" type="line"/>
      <point x="277" y="0" type="line"/>
      <point x="134" y="0" type="line"/>
      <point x="134" y="711" type="line"/>
    </contour>
    <contour>
      <point x="14" y="769" type="line"/>
      <point x="14" y="818" type="line"/>
      <point x="155" y="818" type="line"/>
      <point x="155" y="769" type="line"/>
    </contour>
    <contour>
      <point x="256" y="766" type="line"/>
      <point x="256" y="815" type="line"/>
      <point x="397" y="815" type="line"/>
      <point x="397" y="766" type="line"/>
    </contour>
  </outline>
</glyph>
<glyph name="Ntilde" format="1">
  <advance width="854"/>
  <unicode hex="00D1"/>
  <outline>
    <contour>
      <point x="599" y="831" type="line"/>
      <point x="584" y="800"/>
      <point x="536" y="750"/>
      <point x="499" y="750" type="qcurve" smooth="yes"/>
      <point x="475" y="750"/>
      <point x="435" y="767"/>
      <point x="402" y="788"/>
      <point x="373" y="805"/>
      <point x="361" y="805" type="qcurve" smooth="yes"/>
      <point x="342" y="805"/>
      <point x="320" y="783"/>
      <point x="312" y="769" type="qcurve"/>
      <point x="245" y="805" type="line"/>
      <point x="254" y="820"/>
      <point x="275" y="848"/>
      <point x="300" y="870"/>
      <point x="332" y="883"/>
      <point x="351" y="883" type="qcurve" smooth="yes"/>
      <point x="372" y="883"/>
      <point x="410" y="865"/>
      <point x="444" y="844"/>
      <point x="475" y="827"/>
      <point x="490" y="827" type="qcurve" smooth="yes"/>
      <point x="506" y="827"/>
      <point x="526" y="851"/>
      <point x="532" y="864" type="qcurve"/>
    </contour>
    <contour>
      <point x="213" y="711" type="line"/>
      <point x="641" y="465" type="line"/>
      <point x="641" y="711" type="line"/>
      <point x="784" y="711" type="line"/>
      <point x="784" y="0" type="line"/>
      <point x="641" y="0" type="line"/>
      <point x="641" y="302" type="line"/>
      <point x="213" y="548" type="line"/>
      <point x="213" y="0" type="line"/>
      <point x="70" y="0" type="line"/>
      <point x="70" y="711" type="line"/>
      <point x="165" y="711" type="line"/>
    </contour>
  </outline>
</glyph>
<glyph name="Otilde" format="1">
  <advance width="829"/>
  <unicode hex="00D5"/>
  <outline>
    <contour>
      <point x="586" y="831" type="line"/>
      <point x="571" y="800"/>
      <point x="523" y="750"/>
      <point x="486" y="750" type="qcurve" smooth="yes"/>
      <point x="462" y="750"/>
      <point x="422" y="767"/>
      <point x="389" y="788"/>
      <point x="360" y="805"/>
      <point x="348" y="805" type="qcurve" smooth="yes"/>
      <point x="329" y="805"/>
      <point x="307" y="783"/>
      <point x="299" y="769" type="qcurve"/>
      <point x="232" y="805" type="line"/>
      <point x="241" y="820"/>
      <point x="262" y="848"/>
      <point x="287" y="870"/>
      <point x="319" y="883"/>
      <point x="338" y="883" type="qcurve" smooth="yes"/>
      <point x="359" y="883"/>
      <point x="397" y="865"/>
      <point x="431" y="844"/>
      <point x="462" y="827"/>
      <point x="477" y="827" type="qcurve" smooth="yes"/>
      <point x="493" y="827"/>
      <point x="513" y="851"/>
      <point x="519" y="864" type="qcurve"/>
    </contour>
    <contour>
      <point x="308" y="0" type="line" smooth="yes"/>
      <point x="257" y="0"/>
      <point x="166" y="39"/>
      <point x="99" y="106"/>
      <point x="60" y="197"/>
      <point x="60" y="248" type="qcurve" smooth="yes"/>
      <point x="60" y="462" type="line" smooth="yes"/>
      <point x="60" y="513"/>
      <point x="99" y="604"/>
      <point x="166" y="671"/>
      <point x="257" y="710"/>
      <point x="308" y="710" type="qcurve" smooth="yes"/>
      <point x="522" y="710" type="line" smooth="yes"/>
      <point x="573" y="710"/>
      <point x="664" y="671"/>
      <point x="731" y="604"/>
      <point x="770" y="513"/>
      <point x="770" y="462" type="qcurve" smooth="yes"/>
      <point x="770" y="248" type="line" smooth="yes"/>
      <point x="770" y="197"/>
      <point x="731" y="106"/>
      <point x="664" y="39"/>
      <point x="573" y="0"/>
      <point x="522" y="0" type="qcurve" smooth="yes"/>
    </contour>
    <contour>
      <point x="233" y="537" type="qcurve" smooth="yes"/>
      <point x="218" y="522"/>
      <point x="200" y="485"/>
      <point x="200" y="462" type="qcurve" smooth="yes"/>
      <point x="200" y="248" type="line" smooth="yes"/>
      <point x="200" y="226"/>
      <point x="217" y="188"/>
      <point x="247" y="159"/>
      <point x="286" y="143"/>
      <point x="308" y="143" type="qcurve" smooth="yes"/>
      <point x="522" y="143" type="line" smooth="yes"/>
      <point x="567" y="143"/>
      <point x="627" y="203"/>
      <point x="627" y="248" type="qcurve" smooth="yes"/>
      <point x="627" y="462" type="line" smooth="yes"/>
      <point x="627" y="484"/>
      <point x="611" y="523"/>
      <point x="582" y="553"/>
      <point x="544" y="570"/>
      <point x="522" y="570" type="qcurve" smooth="yes"/>
      <point x="308" y="570" type="line" smooth="yes"/>
      <point x="285" y="570"/>
      <point x="248" y="552"/>
    </contour>
  </outline>
</glyph>
<glyph name="Ucircumflex" format="1">
  <advance width="803"/>
  <unicode hex="00DB"/>
  <outline>
    <contour>
      <point x="508" y="0" type="qcurve" smooth="yes"/>
      <point x="295" y="0" type="line" smooth="yes"/>
      <point x="247" y="0"/>
      <point x="157" y="38"/>
      <point x="89" y="105"/>
      <point x="48" y="197"/>
      <point x="48" y="251" type="qcurve" smooth="yes"/>
      <point x="48" y="711" type="line"/>
      <point x="190" y="711" type="line"/>
      <point x="190" y="251" type="line" smooth="yes"/>
      <point x="190" y="227"/>
      <point x="207" y="187"/>
      <point x="236" y="158"/>
      <point x="274" y="142"/>
      <point x="295" y="142" type="qcurve" smooth="yes"/>
      <point x="508" y="142" type="line" smooth="yes"/>
      <point x="528" y="142"/>
      <point x="567" y="158"/>
      <point x="597" y="187"/>
      <point x="616" y="227"/>
      <point x="616" y="251" type="qcurve" smooth="yes"/>
      <point x="616" y="711" type="line"/>
      <point x="755" y="711" type="line"/>
      <point x="755" y="251" type="line" smooth="yes"/>
      <point x="755" y="197"/>
      <point x="714" y="105"/>
      <point x="646" y="38"/>
      <point x="556" y="0"/>
    </contour>
    <contour>
      <point x="405" y="903" type="line"/>
      <point x="526" y="782" type="line"/>
      <point x="495" y="752" type="line"/>
      <point x="405" y="843" type="line"/>
      <point x="314" y="752" type="line"/>
      <point x="284" y="782" type="line"/>
    </contour>
  </outline>
</glyph>
<glyph name="agrave" format="1">
  <advance width="752"/>
  <unicode hex="00E0"/>
  <outline>
    <contour>
      <point x="454" y="711" type="line"/>
      <point x="731" y="0" type="line"/>
      <point x="579" y="0" type="line"/>
      <point x="536" y="107" type="line"/>
      <point x="216" y="107" type="line"/>
      <point x="176" y="0" type="line"/>
      <point x="24" y="0" type="line"/>
      <point x="301" y="711" type="line"/>
    </contour>
    <contour>
      <point x="482" y="249" type="line"/>
      <point x="375" y="515" type="line"/>
      <point x="271" y="249" type="line"/>
    </contour>
    <contour>
      <point x="266" y="824" type="line"/>
      <point x="316" y="874" type="line"/>
      <point x="412" y="780" type="line"/>
      <point x="375" y="745" type="line"/>
    </contour>
  </outline>
</glyph>
<glyph name="aacute" format="1">
  <advance width="750"/>
  <unicode hex="00E1"/>
  <outline>
    <contour>
      <point x="448" y="711" type="line"/>
      <point x="727" y="0" type="line"/>
      <point x="574" y="0" type="line"/>
      <point x="531" y="108" type="line"/>
      <point x="213" y="108" type="line"/>
      <point x="173" y="0" type="line"/>
      <point x="20" y="0" type="line"/>
      <point x="299" y="711" type="line"/>
    </contour>
    <contour>
      <point x="478" y="249" type="line"/>
      <point x="371" y="514" type="line"/>
      <point x="267" y="249" type="line"/>
    </contour>
    <contour>
      <point x="371" y="748" type="line"/>
      <point x="339" y="783" type="line"/>
      <point x="433" y="877" type="line"/>
      <point x="481" y="827" type="line"/>
    </contour>
  </outline>
</glyph>
<glyph name="acircumflex" format="1">
  <advance width="764"/>
  <unicode hex="00E2"/>
  <outline>
    <contour>
      <point x="458" y="712" type="line"/>
      <point x="738" y="0" type="line"/>
      <point x="587" y="0" type="line"/>
      <point x="544" y="105" type="line"/>
      <point x="222" y="105" type="line"/>
      <point x="179" y="0" type="line"/>
      <point x="26" y="0" type="line"/>
      <point x="305" y="712" type="line"/>
    </contour>
    <contour>
      <point x="488" y="249" type="line"/>
      <point x="383" y="518" type="line"/>
      <point x="278" y="249" type="line"/>
    </contour>
    <contour>
      <point x="383" y="903" type="line"/>
      <point x="504" y="782" type="line"/>
      <point x="473" y="752" type="line"/>
      <point x="383" y="843" type="line"/>
      <point x="292" y="752" type="line"/>
      <point x="262" y="782" type="line"/>
    </contour>
  </outline>
</glyph>
<glyph name="adieresis" format="1">
  <advance width="762"/>
  <unicode hex="00E4"/>
  <outline>
    <contour>
      <point x="426" y="771" type="line"/>
      <point x="426" y="821" type="line"/>
      <point x="568" y="821" type="line"/>
      <point x="568" y="771" type="line"/>
    </contour>
    <contour>
      <point x="186" y="773" type="line"/>
      <point x="186" y="823" type="line"/>
      <point x="326" y="823" type="line"/>
      <point x="326" y="773" type="line"/>
    </contour>
    <contour>
      <point x="457" y="712" type="line"/>
      <point x="737" y="0" type="line"/>
      <point x="586" y="0" type="line"/>
      <point x="543" y="105" type="line"/>
      <point x="221" y="105" type="line"/>
      <point x="178" y="0" type="line"/>
      <point x="25" y="0" type="line"/>
      <point x="304" y="712" type="line"/>
    </contour>
    <contour>
      <point x="487" y="249" type="line"/>
      <point x="382" y="518" type="line"/>
      <point x="277" y="249" type="line"/>
    </contour>
  </outline>
</glyph>
<glyph name="ae" format="1">
  <advance width="1262"/>
  <unicode hex="00E6"/>
  <outline>
    <contour>
      <point x="1192" y="711" type="line"/>
      <point x="1192" y="570" type="line"/>
      <point x="622" y="570" type="line"/>
      <point x="622" y="430" type="line"/>
      <point x="916" y="430" type="line"/>
      <point x="916" y="286" type="line"/>
      <point x="622" y="286" type="line"/>
      <point x="622" y="143" type="line"/>
      <point x="1192" y="143" type="line"/>
      <point x="1192" y="0" type="line"/>
      <point x="479" y="0" type="line"/>
      <point x="479" y="106" type="line"/>
      <point x="240" y="106" type="line"/>
      <point x="197" y="0" type="line"/>
      <point x="44" y="0" type="line"/>
      <point x="323" y="711" type="line"/>
    </contour>
    <contour>
      <point x="421" y="570" type="line"/>
      <point x="295" y="249" type="line"/>
      <point x="479" y="249" type="line"/>
      <point x="479" y="570" type="line"/>
    </contour>
  </outline>
</glyph>
<glyph name="ecircumflex" format="1">
  <advance width="796"/>
  <unicode hex="00EA"/>
  <outline>
    <contour>
      <point x="195" y="568" type="line"/>
      <point x="195" y="427" type="line"/>
      <point x="488" y="427" type="line"/>
      <point x="488" y="288" type="line"/>
      <point x="195" y="288" type="line"/>
      <point x="195" y="142" type="line"/>
      <point x="760" y="142" type="line"/>
      <point x="760" y="0" type="line"/>
      <point x="53" y="0" type="line"/>
      <point x="53" y="568" type="line"/>
      <point x="53" y="711" type="line"/>
      <point x="760" y="711" type="line"/>
      <point x="760" y="568" type="line"/>
    </contour>
    <contour>
      <point x="407" y="897" type="line"/>
      <point x="528" y="778" type="line"/>
      <point x="498" y="748" type="line"/>
      <point x="407" y="837" type="line"/>
      <point x="317" y="748" type="line"/>
      <point x="285" y="778" type="line"/>
    </contour>
  </outline>
</glyph>
<glyph name="edieresis" format="1">
  <advance width="819"/>
  <unicode hex="00EB"/>
  <outline>
    <contour>
      <point x="773" y="569" type="line"/>
      <point x="207" y="569" type="line"/>
      <point x="207" y="428" type="line"/>
      <point x="500" y="428" type="line"/>
      <point x="500" y="288" type="line"/>
      <point x="207" y="288" type="line"/>
      <point x="207" y="143" type="line"/>
      <point x="773" y="143" type="line"/>
      <point x="773" y="0" type="line"/>
      <point x="64" y="0" type="line"/>
      <point x="64" y="569" type="line"/>
      <point x="64" y="712" type="line"/>
      <point x="773" y="712" type="line"/>
    </contour>
    <contour>
      <point x="204" y="749" type="line"/>
      <point x="204" y="797" type="line"/>
      <point x="347" y="797" type="line"/>
      <point x="347" y="749" type="line"/>
    </contour>
    <contour>
      <point x="490" y="749" type="line"/>
      <point x="490" y="797" type="line"/>
      <point x="633" y="797" type="line"/>
      <point x="633" y="749" type="line"/>
    </contour>
  </outline>
</glyph>
<glyph name="igrave" format="1">
  <advance width="258"/>
  <unicode hex="00EC"/>
  <outline>
    <contour>
      <point x="65" y="0" type="line"/>
      <point x="65" y="711" type="line"/>
      <point x="207" y="711" type="line"/>
      <point x="207" y="0" type="line"/>
    </contour>
    <contour>
      <point x="25" y="827" type="line"/>
      <point x="75" y="874" type="line"/>
      <point x="169" y="779" type="line"/>
      <point x="134" y="746" type="line"/>
    </contour>
  </outline>
</glyph>
<glyph name="iacute" format="1">
  <advance width="260"/>
  <unicode hex="00ED"/>
  <outline>
    <contour>
      <point x="54" y="0" type="line"/>
      <point x="54" y="712" type="line"/>
      <point x="197" y="712" type="line"/>
      <point x="197" y="0" type="line"/>
    </contour>
    <contour>
      <point x="126" y="746" type="line"/>
      <point x="88" y="780" type="line"/>
      <point x="186" y="876" type="line"/>
      <point x="234" y="829" type="line"/>
    </contour>
  </outline>
</glyph>
<glyph name="icircumflex" format="1">
  <advance width="299"/>
  <unicode hex="00EE"/>
  <outline>
    <contour>
      <point x="79" y="0" type="line"/>
      <point x="79" y="711" type="line"/>
      <point x="220" y="711" type="line"/>
      <point x="220" y="0" type="line"/>
    </contour>
    <contour>
      <point x="150" y="899" type="line"/>
      <point x="270" y="778" type="line"/>
      <point x="240" y="748" type="line"/>
      <point x="150" y="839" type="line"/>
      <point x="59" y="748" type="line"/>
      <point x="29" y="778" type="line"/>
    </contour>
  </outline>
</glyph>
<glyph name="ntilde" format="1">
  <advance width="859"/>
  <unicode hex="00F1"/>
  <outline>
    <contour>
      <point x="604" y="831" type="line"/>
      <point x="589" y="800"/>
      <point x="541" y="750"/>
      <point x="504" y="750" type="qcurve" smooth="yes"/>
      <point x="480" y="750"/>
      <point x="440" y="767"/>
      <point x="407" y="788"/>
      <point x="378" y="805"/>
      <point x="366" y="805" type="qcurve" smooth="yes"/>
      <point x="347" y="805"/>
      <point x="325" y="783"/>
      <point x="317" y="769" type="qcurve"/>
      <point x="250" y="805" type="line"/>
      <point x="259" y="820"/>
      <point x="280" y="848"/>
      <point x="305" y="870"/>
      <point x="337" y="883"/>
      <point x="356" y="883" type="qcurve" smooth="yes"/>
      <point x="377" y="883"/>
      <point x="415" y="865"/>
      <point x="449" y="844"/>
      <point x="480" y="827"/>
      <point x="495" y="827" type="qcurve" smooth="yes"/>
      <point x="511" y="827"/>
      <point x="531" y="851"/>
      <point x="537" y="864" type="qcurve"/>
    </contour>
    <contour>
      <point x="218" y="711" type="line"/>
      <point x="646" y="465" type="line"/>
      <point x="646" y="711" type="line"/>
      <point x="789" y="711" type="line"/>
      <point x="789" y="0" type="line"/>
      <point x="646" y="0" type="line"/>
      <point x="646" y="302" type="line"/>
      <point x="218" y="548" type="line"/>
      <point x="218" y="0" type="line"/>
      <point x="75" y="0" type="line"/>
      <point x="75" y="711" type="line"/>
      <point x="170" y="711" type="line"/>
    </contour>
  </outline>
</glyph>
<glyph name="otilde" format="1">
  <advance width="830"/>
  <unicode hex="00F5"/>
  <outline>
    <contour>
      <point x="587" y="831" type="line"/>
      <point x="572" y="800"/>
      <point x="524" y="750"/>
      <point x="487" y="750" type="qcurve" smooth="yes"/>
      <point x="463" y="750"/>
      <point x="423" y="767"/>
      <point x="390" y="788"/>
      <point x="361" y="805"/>
      <point x="349" y="805" type="qcurve" smooth="yes"/>
      <point x="330" y="805"/>
      <point x="308" y="783"/>
      <point x="300" y="769" type="qcurve"/>
      <point x="233" y="805" type="line"/>
      <point x="242" y="820"/>
      <point x="263" y="848"/>
      <point x="288" y="870"/>
      <point x="320" y="883"/>
      <point x="339" y="883" type="qcurve" smooth="yes"/>
      <point x="360" y="883"/>
      <point x="398" y="865"/>
      <point x="432" y="844"/>
      <point x="463" y="827"/>
      <point x="478" y="827" type="qcurve" smooth="yes"/>
      <point x="494" y="827"/>
      <point x="514" y="851"/>
      <point x="520" y="864" type="qcurve"/>
    </contour>
    <contour>
      <point x="308" y="0" type="line" smooth="yes"/>
      <point x="257" y="0"/>
      <point x="166" y="39"/>
      <point x="99" y="106"/>
      <point x="60" y="197"/>
      <point x="60" y="248" type="qcurve" smooth="yes"/>
      <point x="60" y="462" type="line" smooth="yes"/>
      <point x="60" y="513"/>
      <point x="99" y="604"/>
      <point x="166" y="671"/>
      <point x="257" y="710"/>
      <point x="308" y="710" type="qcurve" smooth="yes"/>
      <point x="522" y="710" type="line" smooth="yes"/>
      <point x="573" y="710"/>
      <point x="664" y="671"/>
      <point x="731" y="604"/>
      <point x="770" y="513"/>
      <point x="770" y="462" type="qcurve" smooth="yes"/>
      <point x="770" y="248" type="line" smooth="yes"/>
      <point x="770" y="197"/>
      <point x="731" y="106"/>
      <point x="664" y="39"/>
      <point x="573" y="0"/>
      <point x="522" y="0" type="qcurve" smooth="yes"/>
    </contour>
    <contour>
      <point x="233" y="537" type="qcurve" smooth="yes"/>
      <point x="218" y="522"/>
      <point x="200" y="485"/>
      <point x="200" y="462" type="qcurve" smooth="yes"/>
      <point x="200" y="248" type="line" smooth="yes"/>
      <point x="200" y="226"/>
      <point x="217" y="188"/>
      <point x="247" y="159"/>
      <point x="286" y="143"/>
      <point x="308" y="143" type="qcurve" smooth="yes"/>
      <point x="522" y="143" type="line" smooth="yes"/>
      <point x="567" y="143"/>
      <point x="627" y="203"/>
      <point x="627" y="248" type="qcurve" smooth="yes"/>
      <point x="627" y="462" type="line" smooth="yes"/>
      <point x="627" y="484"/>
      <point x="611" y="523"/>
      <point x="582" y="553"/>
      <point x="544" y="570"/>
      <point x="522" y="570" type="qcurve" smooth="yes"/>
      <point x="308" y="570" type="line" smooth="yes"/>
      <point x="285" y="570"/>
      <point x="248" y="552"/>
    </contour>
  </outline>
</glyph>
<glyph name="odieresis" format="1">
  <advance width="830"/>
  <unicode hex="00F6"/>
  <outline>
    <contour>
      <point x="204" y="749" type="line"/>
      <point x="204" y="797" type="line"/>
      <point x="347" y="797" type="line"/>
      <point x="347" y="749" type="line"/>
    </contour>
    <contour>
      <point x="490" y="749" type="line"/>
      <point x="490" y="797" type="line"/>
      <point x="633" y="797" type="line"/>
      <point x="633" y="749" type="line"/>
    </contour>
    <contour>
      <point x="308" y="0" type="line" smooth="yes"/>
      <point x="257" y="0"/>
      <point x="166" y="39"/>
      <point x="99" y="106"/>
      <point x="60" y="197"/>
      <point x="60" y="248" type="qcurve" smooth="yes"/>
      <point x="60" y="462" type="line" smooth="yes"/>
      <point x="60" y="513"/>
      <point x="99" y="604"/>
      <point x="166" y="671"/>
      <point x="257" y="710"/>
      <point x="308" y="710" type="qcurve" smooth="yes"/>
      <point x="522" y="710" type="line" smooth="yes"/>
      <point x="573" y="710"/>
      <point x="664" y="671"/>
      <point x="731" y="604"/>
      <point x="770" y="513"/>
      <point x="770" y="462" type="qcurve" smooth="yes"/>
      <point x="770" y="248" type="line" smooth="yes"/>
      <point x="770" y="197"/>
      <point x="731" y="106"/>
      <point x="664" y="39"/>
      <point x="573" y="0"/>
      <point x="522" y="0" type="qcurve" smooth="yes"/>
    </contour>
    <contour>
      <point x="233" y="537" type="qcurve" smooth="yes"/>
      <point x="218" y="522"/>
      <point x="200" y="485"/>
      <point x="200" y="462" type="qcurve" smooth="yes"/>
      <point x="200" y="248" type="line" smooth="yes"/>
      <point x="200" y="226"/>
      <point x="217" y="188"/>
      <point x="247" y="159"/>
      <point x="286" y="143"/>
      <point x="308" y="143" type="qcurve" smooth="yes"/>
      <point x="522" y="143" type="line" smooth="yes"/>
      <point x="567" y="143"/>
      <point x="627" y="203"/>
      <point x="627" y="248" type="qcurve" smooth="yes"/>
      <point x="627" y="462" type="line" smooth="yes"/>
      <point x="627" y="484"/>
      <point x="611" y="523"/>
      <point x="582" y="553"/>
      <point x="544" y="570"/>
      <point x="522" y="570" type="qcurve" smooth="yes"/>
      <point x="308" y="570" type="line" smooth="yes"/>
      <point x="285" y="570"/>
      <point x="248" y="552"/>
    </contour>
  </outline>
</glyph>
<glyph name="ugrave" format="1">
  <advance width="800"/>
  <unicode hex="00F9"/>
  <outline>
    <contour>
      <point x="509" y="0" type="qcurve" smooth="yes"/>
      <point x="296" y="0" type="line" smooth="yes"/>
      <point x="248" y="0"/>
      <point x="158" y="38"/>
      <point x="90" y="105"/>
      <point x="49" y="197"/>
      <point x="49" y="251" type="qcurve" smooth="yes"/>
      <point x="49" y="711" type="line"/>
      <point x="191" y="711" type="line"/>
      <point x="191" y="251" type="line" smooth="yes"/>
      <point x="191" y="227"/>
      <point x="208" y="187"/>
      <point x="237" y="158"/>
      <point x="275" y="142"/>
      <point x="296" y="142" type="qcurve" smooth="yes"/>
      <point x="509" y="142" type="line" smooth="yes"/>
      <point x="529" y="142"/>
      <point x="568" y="158"/>
      <point x="598" y="187"/>
      <point x="617" y="227"/>
      <point x="617" y="251" type="qcurve" smooth="yes"/>
      <point x="617" y="711" type="line"/>
      <point x="756" y="711" type="line"/>
      <point x="756" y="251" type="line" smooth="yes"/>
      <point x="756" y="197"/>
      <point x="715" y="105"/>
      <point x="647" y="38"/>
      <point x="557" y="0"/>
    </contour>
    <contour>
      <point x="291" y="826" type="line"/>
      <point x="341" y="876" type="line"/>
      <point x="436" y="780" type="line"/>
      <point x="402" y="745" type="line"/>
    </contour>
  </outline>
</glyph>
<glyph name="uacute" format="1">
  <advance width="841"/>
  <unicode hex="00FA"/>
  <outline>
    <contour>
      <point x="505" y="0" type="qcurve" smooth="yes"/>
      <point x="292" y="0" type="line" smooth="yes"/>
      <point x="244" y="0"/>
      <point x="154" y="38"/>
      <point x="86" y="105"/>
      <point x="45" y="197"/>
      <point x="45" y="251" type="qcurve" smooth="yes"/>
      <point x="45" y="711" type="line"/>
      <point x="187" y="711" type="line"/>
      <point x="187" y="251" type="line" smooth="yes"/>
      <point x="187" y="227"/>
      <point x="204" y="187"/>
      <point x="233" y="158"/>
      <point x="271" y="142"/>
      <point x="292" y="142" type="qcurve" smooth="yes"/>
      <point x="505" y="142" type="line" smooth="yes"/>
      <point x="525" y="142"/>
      <point x="564" y="158"/>
      <point x="594" y="187"/>
      <point x="613" y="227"/>
      <point x="613" y="251" type="qcurve" smooth="yes"/>
      <point x="613" y="711" type="line"/>
      <point x="752" y="711" type="line"/>
      <point x="752" y="251" type="line" smooth="yes"/>
      <point x="752" y="197"/>
      <point x="711" y="105"/>
      <point x="643" y="38"/>
      <point x="553" y="0"/>
    </contour>
    <contour>
      <point x="396" y="748" type="line"/>
      <point x="364" y="783" type="line"/>
      <point x="458" y="877" type="line"/>
      <point x="506" y="827" type="line"/>
    </contour>
  </outline>
</glyph>
<glyph name="ucircumflex" format="1">
  <advance width="841"/>
  <unicode hex="00FB"/>
  <outline>
    <contour>
      <point x="421" y="903" type="line"/>
      <point x="542" y="782" type="line"/>
      <point x="511" y="752" type="line"/>
      <point x="421" y="843" type="line"/>
      <point x="330" y="752" type="line"/>
      <point x="300" y="782" type="line"/>
    </contour>
    <contour>
      <point x="315" y="0" type="line" smooth="yes"/>
      <point x="263" y="0"/>
      <point x="172" y="39"/>
      <point x="104" y="107"/>
      <point x="65" y="198"/>
      <point x="65" y="250" type="qcurve" smooth="yes"/>
      <point x="65" y="712" type="line"/>
      <point x="205" y="712" type="line"/>
      <point x="205" y="250" type="line" smooth="yes"/>
      <point x="205" y="227"/>
      <point x="222" y="188"/>
      <point x="252" y="159"/>
      <point x="292" y="143"/>
      <point x="315" y="143" type="qcurve" smooth="yes"/>
      <point x="527" y="143" type="line" smooth="yes"/>
      <point x="550" y="143"/>
      <point x="590" y="159"/>
      <point x="620" y="188"/>
      <point x="637" y="227"/>
      <point x="637" y="250" type="qcurve" smooth="yes"/>
      <point x="637" y="712" type="line"/>
      <point x="777" y="712" type="line"/>
      <point x="777" y="250" type="line" smooth="yes"/>
      <point x="777" y="198"/>
      <point x="738" y="107"/>
      <point x="670" y="39"/>
      <point x="579" y="0"/>
      <point x="527" y="0" type="qcurve" smooth="yes"/>
    </contour>
  </outline>
</glyph>
<glyph name="udieresis" format="1">
  <advance width="825"/>
  <unicode hex="00FC"/>
  <outline>
    <contour>
      <point x="305" y="0" type="line" smooth="yes"/>
      <point x="255" y="0"/>
      <point x="165" y="39"/>
      <point x="98" y="107"/>
      <point x="58" y="198"/>
      <point x="58" y="251" type="qcurve" smooth="yes"/>
      <point x="58" y="711" type="line"/>
      <point x="200" y="711" type="line"/>
      <point x="200" y="251" type="line" smooth="yes"/>
      <point x="200" y="227"/>
      <point x="218" y="187"/>
      <point x="247" y="158"/>
      <point x="285" y="142"/>
      <point x="305" y="142" type="qcurve" smooth="yes"/>
      <point x="520" y="142" type="line" smooth="yes"/>
      <point x="539" y="142"/>
      <point x="578" y="158"/>
      <point x="608" y="187"/>
      <point x="627" y="227"/>
      <point x="627" y="251" type="qcurve" smooth="yes"/>
      <point x="627" y="711" type="line"/>
      <point x="767" y="711" type="line"/>
      <point x="767" y="251" type="line" smooth="yes"/>
      <point x="767" y="198"/>
      <point x="727" y="107"/>
      <point x="660" y="39"/>
      <point x="570" y="0"/>
      <point x="520" y="0" type="qcurve" smooth="yes"/>
    </contour>
    <contour>
      <point x="221" y="746" type="line"/>
      <point x="221" y="796" type="line"/>
      <point x="362" y="796" type="line"/>
      <point x="362" y="746" type="line"/>
    </contour>
    <contour>
      <point x="463" y="746" type="line"/>
      <point x="463" y="796" type="line"/>
      <point x="604" y="796" type="line"/>
      <point x="604" y="746" type="line"/>
    </contour>
  </outline>
</glyph>
<glyph name="ydieresis" format="1">
  <advance width="756"/>
  <unicode hex="00FF"/>
  <outline>
    <contour>
      <point x="553" y="712" type="line"/>
      <point x="733" y="712" type="line"/>
      <point x="449" y="337" type="line"/>
      <point x="449" y="0" type="line"/>
      <point x="307" y="0" type="line"/>
      <point x="307" y="337" type="line"/>
      <point x="25" y="712" type="line"/>
      <point x="204" y="712" type="line"/>
      <point x="381" y="480" type="line"/>
    </contour>
    <contour>
      <point x="307" y="751" type="line"/>
      <point x="164" y="751" type="line"/>
      <point x="164" y="799" type="line"/>
      <point x="307" y="799" type="line"/>
    </contour>
    <contour>
      <point x="593" y="751" type="line"/>
      <point x="450" y="751" type="line"/>
      <point x="450" y="799" type="line"/>
      <point x="593" y="799" type="line"/>
    </contour>
  </outline>
</glyph>
<glyph name="dotlessi" format="1">
  <advance width="279"/>
  <unicode hex="0131"/>
  <outline>
    <contour>
      <point x="70" y="712" type="line"/>
      <point x="211" y="712" type="line"/>
      <point x="211" y="0" type="line"/>
      <point x="70" y="0" type="line"/>
    </contour>
  </outline>
</glyph>
<glyph name="ij" format="1">
  <advance width="847"/>
  <unicode hex="0133"/>
  <outline>
    <contour>
      <point x="213" y="713" type="line"/>
      <point x="213" y="0" type="line"/>
      <point x="70" y="0" type="line"/>
      <point x="70" y="713" type="line"/>
    </contour>
    <contour>
      <point x="532" y="3" type="qcurve" smooth="yes"/>
      <point x="479" y="3"/>
      <point x="388" y="43"/>
      <point x="321" y="111"/>
      <point x="283" y="201"/>
      <point x="283" y="251" type="qcurve"/>
      <point x="426" y="251" type="line"/>
      <point x="426" y="229"/>
      <point x="443" y="190"/>
      <point x="472" y="161"/>
      <point x="510" y="144"/>
      <point x="532" y="144" type="qcurve" smooth="yes"/>
      <point x="556" y="144"/>
      <point x="595" y="162"/>
      <point x="624" y="191"/>
      <point x="639" y="230"/>
      <point x="639" y="251" type="qcurve" smooth="yes"/>
      <point x="639" y="713" type="line"/>
      <point x="783" y="713" type="line"/>
      <point x="783" y="251" type="line" smooth="yes"/>
      <point x="783" y="202"/>
      <point x="745" y="113"/>
      <point x="678" y="44"/>
      <point x="586" y="3"/>
    </contour>
  </outline>
</glyph>
<glyph name="oe" format="1">
  <advance width="1430"/>
  <unicode hex="0153"/>
  <outline>
    <contour>
      <point x="243" y="536" type="qcurve" smooth="yes"/>
      <point x="228" y="521"/>
      <point x="210" y="484"/>
      <point x="210" y="461" type="qcurve" smooth="yes"/>
      <point x="210" y="247" type="line" smooth="yes"/>
      <point x="210" y="225"/>
      <point x="227" y="187"/>
      <point x="257" y="158"/>
      <point x="296" y="142"/>
      <point x="318" y="142" type="qcurve" smooth="yes"/>
      <point x="532" y="142" type="line" smooth="yes"/>
      <point x="577" y="142"/>
      <point x="637" y="202"/>
      <point x="637" y="247" type="qcurve" smooth="yes"/>
      <point x="637" y="461" type="line" smooth="yes"/>
      <point x="637" y="483"/>
      <point x="621" y="522"/>
      <point x="592" y="552"/>
      <point x="554" y="569"/>
      <point x="532" y="569" type="qcurve" smooth="yes"/>
      <point x="318" y="569" type="line" smooth="yes"/>
      <point x="295" y="569"/>
      <point x="258" y="551"/>
    </contour>
    <contour>
      <point x="651" y="64" type="line"/>
      <point x="617" y="33"/>
      <point x="530" y="-1"/>
      <point x="482" y="-1" type="qcurve" smooth="yes"/>
      <point x="318" y="-1" type="line" smooth="yes"/>
      <point x="267" y="-1"/>
      <point x="176" y="38"/>
      <point x="109" y="105"/>
      <point x="70" y="196"/>
      <point x="70" y="247" type="qcurve" smooth="yes"/>
      <point x="70" y="461" type="line" smooth="yes"/>
      <point x="70" y="512"/>
      <point x="109" y="603"/>
      <point x="176" y="670"/>
      <point x="267" y="709"/>
      <point x="318" y="709" type="qcurve" smooth="yes"/>
      <point x="482" y="709" type="line" smooth="yes"/>
      <point x="530" y="709"/>
      <point x="617" y="674"/>
      <point x="651" y="643" type="qcurve"/>
      <point x="651" y="709" type="line"/>
      <point x="1362" y="709" type="line"/>
      <point x="1362" y="569" type="line"/>
      <point x="791" y="569" type="line"/>
      <point x="791" y="428" type="line"/>
      <point x="1088" y="428" type="line"/>
      <point x="1088" y="285" type="line"/>
      <point x="791" y="285" type="line"/>
      <point x="791" y="141" type="line"/>
      <point x="1362" y="141" type="line"/>
      <point x="1362" y="-2" type="line"/>
      <point x="651" y="-2" type="line"/>
    </contour>
  </outline>
</glyph>
<glyph name="circumflex" format="1">
  <advance width="833"/>
  <unicode hex="02C6"/>
  <outline>
    <contour>
      <point x="405" y="903" type="line"/>
      <point x="526" y="782" type="line"/>
      <point x="495" y="752" type="line"/>
      <point x="405" y="843" type="line"/>
      <point x="314" y="752" type="line"/>
      <point x="284" y="782" type="line"/>
    </contour>
    <contour>
      <point x="405" y="903" type="line"/>
      <point x="526" y="782" type="line"/>
      <point x="495" y="752" type="line"/>
      <point x="405" y="843" type="line"/>
      <point x="314" y="752" type="line"/>
      <point x="284" y="782" type="line"/>
    </contour>
  </outline>
</glyph>
<glyph name="endash" format="1">
  <advance width="833"/>
  <unicode hex="2013"/>
  <outline>
    <contour>
      <point x="70" y="256" type="line"/>
      <point x="70" y="375" type="line"/>
      <point x="545" y="375" type="line"/>
      <point x="545" y="256" type="line"/>
    </contour>
  </outline>
</glyph>
<glyph name="emdash" format="1">
  <advance width="833"/>
  <unicode hex="2014"/>
  <outline>
    <contour>
      <point x="70" y="256" type="line"/>
      <point x="70" y="375" type="line"/>
      <point x="781" y="375" type="line"/>
      <point x="781" y="256" type="line"/>
    </contour>
  </outline>
</glyph>
<glyph name="quoteleft" format="1">
  <advance width="261"/>
  <unicode hex="2018"/>
  <outline>
    <contour>
      <point x="190" y="712" type="line"/>
      <point x="190" y="534" type="line"/>
      <point x="71" y="534" type="line"/>
      <point x="71" y="652" type="line"/>
    </contour>
  </outline>
</glyph>
<glyph name="quoteright" format="1">
  <advance width="261"/>
  <unicode hex="2019"/>
  <outline>
    <contour>
      <point x="71" y="534" type="line"/>
      <point x="71" y="712" type="line"/>
      <point x="190" y="712" type="line"/>
      <point x="190" y="594" type="line"/>
    </contour>
  </outline>
</glyph>
<glyph name="quotedblleft" format="1">
  <advance width="440"/>
  <unicode hex="201C"/>
  <outline>
    <contour>
      <point x="368" y="712" type="line"/>
      <point x="368" y="534" type="line"/>
      <point x="249" y="534" type="line"/>
      <point x="249" y="652" type="line"/>
    </contour>
    <contour>
      <point x="190" y="712" type="line"/>
      <point x="190" y="534" type="line"/>
      <point x="71" y="534" type="line"/>
      <point x="71" y="652" type="line"/>
    </contour>
  </outline>
</glyph>
<glyph name="quotedblright" format="1">
  <advance width="440"/>
  <unicode hex="201D"/>
  <outline>
    <contour>
      <point x="71" y="534" type="line"/>
      <point x="71" y="712" type="line"/>
      <point x="190" y="712" type="line"/>
      <point x="190" y="594" type="line"/>
    </contour>
    <contour>
      <point x="249" y="534" type="line"/>
      <point x="249" y="712" type="line"/>
      <point x="368" y="712" type="line"/>
      <point x="368" y="594" type="line"/>
    </contour>
  </outline>
</glyph>
<glyph name="ellipsis" format="1">
  <advance width="771"/>
  <unicode hex="2026"/>
  <outline>
    <contour>
      <point x="70" y="0" type="line"/>
      <point x="70" y="119" type="line"/>
      <point x="189" y="119" type="line"/>
      <point x="189" y="0" type="line"/>
    </contour>
    <contour>
      <point x="327" y="0" type="line"/>
      <point x="327" y="119" type="line"/>
      <point x="446" y="119" type="line"/>
      <point x="446" y="0" type="line"/>
    </contour>
    <contour>
      <point x="584" y="0" type="line"/>
      <point x="584" y="119" type="line"/>
      <point x="703" y="119" type="line"/>
      <point x="703" y="0" type="line"/>
    </contour>
  </outline>
</glyph>
<glyph name="Euro" format="1">
  <advance width="580"/>
  <unicode hex="20AC"/>
  <outline>
    <contour>
      <point x="510" y="2" type="line"/>
      <point x="456" y="2"/>
      <point x="357" y="33"/>
      <point x="273" y="87"/>
      <point x="207" y="163"/>
      <point x="188" y="208" type="qcurve"/>
      <point x="70" y="208" type="line"/>
      <point x="70" y="308" type="line"/>
      <point x="158" y="308" type="line"/>
      <point x="155" y="332"/>
      <point x="155" y="358" type="qcurve" smooth="yes"/>
      <point x="155" y="382"/>
      <point x="158" y="408" type="qcurve"/>
      <point x="70" y="408" type="line"/>
      <point x="70" y="508" type="line"/>
      <point x="188" y="508" type="line"/>
      <point x="208" y="553"/>
      <point x="273" y="628"/>
      <point x="357" y="682"/>
      <point x="456" y="713"/>
      <point x="510" y="713" type="qcurve"/>
      <point x="510" y="607" type="line"/>
      <point x="448" y="607"/>
      <point x="346" y="553"/>
      <point x="311" y="508" type="qcurve"/>
      <point x="510" y="508" type="line"/>
      <point x="510" y="408" type="line"/>
      <point x="266" y="408" type="line"/>
      <point x="264" y="395"/>
      <point x="261" y="371"/>
      <point x="261" y="358" type="qcurve" smooth="yes"/>
      <point x="261" y="344"/>
      <point x="264" y="320"/>
      <point x="266" y="308" type="qcurve"/>
      <point x="510" y="308" type="line"/>
      <point x="510" y="208" type="line"/>
      <point x="311" y="208" type="line"/>
      <point x="325" y="185"/>
      <point x="369" y="149"/>
      <point x="421" y="122"/>
      <point x="480" y="108"/>
      <point x="510" y="108" type="qcurve"/>
    </contour>
  </outline>
</glyph>
<glyph name="trademark" format="1">
  <advance width="529"/>
  <unicode hex="2122"/>
  <outline>
    <contour>
      <point x="252" y="674" type="line"/>
      <point x="179" y="674" type="line"/>
      <point x="179" y="529" type="line"/>
      <point x="144" y="529" type="line"/>
      <point x="144" y="674" type="line"/>
      <point x="71" y="674" type="line"/>
      <point x="71" y="710" type="line"/>
      <point x="252" y="710" type="line"/>
    </contour>
    <contour>
      <point x="458" y="710" type="line"/>
      <point x="458" y="529" type="line"/>
      <point x="422" y="529" type="line"/>
      <point x="422" y="658" type="line"/>
      <point x="392" y="630" type="line"/>
      <point x="393" y="630" type="line"/>
      <point x="367" y="604" type="line"/>
      <point x="312" y="658" type="line"/>
      <point x="312" y="529" type="line"/>
      <point x="277" y="529" type="line"/>
      <point x="277" y="710" type="line"/>
      <point x="314" y="710" type="line"/>
      <point x="367" y="655" type="line"/>
      <point x="422" y="710" type="line"/>
    </contour>
  </outline>
</glyph>
